G04 #@! TF.FileFunction,Copper,L2,Bot,Signal*
%FSLAX46Y46*%
G04 Gerber Fmt 4.6, Leading zero omitted, Abs format (unit mm)*
G04 Created by KiCad (PCBNEW (2016-11-25 revision 30df041)-master) date Sun Nov 27 00:56:35 2016*
%MOMM*%
%LPD*%
G01*
G04 APERTURE LIST*
%ADD10C,0.100000*%
%ADD11O,2.032000X1.727200*%
%ADD12R,2.032000X1.727200*%
%ADD13C,1.050000*%
%ADD14R,1.050000X1.050000*%
%ADD15C,0.800000*%
%ADD16C,0.400000*%
%ADD17C,0.250000*%
%ADD18C,0.152400*%
%ADD19C,0.254000*%
G04 APERTURE END LIST*
D10*
D11*
X160020000Y-109220000D03*
X160020000Y-106680000D03*
X160020000Y-104140000D03*
X160020000Y-101600000D03*
X160020000Y-99060000D03*
X160020000Y-96520000D03*
D12*
X160020000Y-93980000D03*
X135890000Y-105410000D03*
D11*
X135890000Y-102870000D03*
X135890000Y-100330000D03*
X135890000Y-97790000D03*
D13*
X146050000Y-106426000D03*
X151130000Y-106426000D03*
X149860000Y-106426000D03*
X148590000Y-106426000D03*
X147320000Y-106426000D03*
X151130000Y-107696000D03*
X149860000Y-107696000D03*
X148590000Y-107696000D03*
X147320000Y-107696000D03*
D14*
X146050000Y-107696000D03*
D15*
X142747996Y-100520500D03*
D16*
X144272000Y-99314000D03*
X144526000Y-96774000D03*
X144780000Y-100076000D03*
X144780000Y-100838000D03*
X144780000Y-101600000D03*
X151130000Y-96012000D03*
X150460002Y-97409000D03*
X149161500Y-104584500D03*
X153670000Y-99377500D03*
X150685500Y-104965500D03*
X149415500Y-105156000D03*
X152400000Y-100076000D03*
D17*
X142747996Y-101086185D02*
X142747996Y-100520500D01*
X142747996Y-106028998D02*
X142747996Y-101086185D01*
X145684998Y-108966000D02*
X142747996Y-106028998D01*
X147320000Y-108966000D02*
X145684998Y-108966000D01*
X148590000Y-109220000D02*
X147574000Y-109220000D01*
X147574000Y-109220000D02*
X147320000Y-108966000D01*
X135890000Y-97790000D02*
X135737600Y-97790000D01*
X147320000Y-108438462D02*
X147320000Y-108966000D01*
X147320000Y-107696000D02*
X147320000Y-108438462D01*
X151130000Y-107696000D02*
X151130000Y-108438462D01*
X151130000Y-108438462D02*
X150348462Y-109220000D01*
X150348462Y-109220000D02*
X148590000Y-109220000D01*
X148590000Y-109220000D02*
X148590000Y-107696000D01*
D18*
X144272000Y-99314000D02*
X144272000Y-97028000D01*
X144272000Y-97028000D02*
X144526000Y-96774000D01*
X160020000Y-93980000D02*
X159867600Y-93980000D01*
X159867600Y-93980000D02*
X156009999Y-97837601D01*
X156009999Y-97837601D02*
X145589601Y-97837601D01*
X145589601Y-97837601D02*
X144526000Y-96774000D01*
X145542000Y-98142411D02*
X144780000Y-98904411D01*
X144780000Y-98904411D02*
X144780000Y-100076000D01*
X156136255Y-98142411D02*
X145542000Y-98142411D01*
X160020000Y-96520000D02*
X157758666Y-96520000D01*
X157758666Y-96520000D02*
X156136255Y-98142411D01*
X145288000Y-100330000D02*
X145113399Y-100504601D01*
X145113399Y-100504601D02*
X144780000Y-100838000D01*
X145288000Y-98827477D02*
X145288000Y-100330000D01*
X145668256Y-98447221D02*
X145288000Y-98827477D01*
X156105221Y-98447221D02*
X145668256Y-98447221D01*
X156718000Y-99060000D02*
X156105221Y-98447221D01*
X160020000Y-99060000D02*
X156718000Y-99060000D01*
X148590000Y-106426000D02*
X148590000Y-102362000D01*
X148590000Y-102362000D02*
X147828000Y-101600000D01*
X147828000Y-101600000D02*
X144780000Y-101600000D01*
X145592810Y-99009190D02*
X145592810Y-100659520D01*
X145592810Y-100659520D02*
X144780000Y-101472330D01*
X144780000Y-101472330D02*
X144780000Y-101600000D01*
X146050000Y-98806000D02*
X145796000Y-98806000D01*
X145796000Y-98806000D02*
X145592810Y-99009190D01*
X147066000Y-98806000D02*
X146050000Y-98806000D01*
X155956000Y-98806000D02*
X147066000Y-98806000D01*
X156514810Y-99364810D02*
X155956000Y-98806000D01*
X160020000Y-101600000D02*
X158851600Y-101600000D01*
X158851600Y-101600000D02*
X156616410Y-99364810D01*
X156616410Y-99364810D02*
X156514810Y-99364810D01*
X151130000Y-96012000D02*
X150418066Y-96012000D01*
X150418066Y-96012000D02*
X150396788Y-95985318D01*
X150077711Y-95624625D02*
X150044440Y-95617031D01*
X150396788Y-95985318D02*
X150381981Y-95954571D01*
X149351257Y-94945191D02*
X139573744Y-94945190D01*
X150381981Y-95954571D02*
X150374387Y-95921300D01*
X150242420Y-95546469D02*
X150215738Y-95567747D01*
X150273167Y-95531662D02*
X150242420Y-95546469D01*
X150044440Y-95617031D02*
X150013693Y-95602224D01*
X150374387Y-95921300D02*
X150374387Y-95887173D01*
X150418066Y-95796473D02*
X150431265Y-95783273D01*
X150374387Y-95887173D02*
X150381981Y-95853902D01*
X150013693Y-95602224D02*
X149987013Y-95580947D01*
X150474944Y-95658446D02*
X150467350Y-95625175D01*
X150381981Y-95853902D02*
X150396788Y-95823155D01*
X150452543Y-95594428D02*
X150431265Y-95567747D01*
X150306438Y-95524068D02*
X150273167Y-95531662D01*
X150396788Y-95823155D02*
X150418066Y-95796473D01*
X150431265Y-95783273D02*
X150452543Y-95756592D01*
X150452543Y-95756592D02*
X150467350Y-95725844D01*
X150175857Y-95602224D02*
X150145109Y-95617031D01*
X150467350Y-95725844D02*
X150474944Y-95692573D01*
X150467350Y-95625175D02*
X150452543Y-95594428D01*
X150202538Y-95580946D02*
X150175857Y-95602224D01*
X150474944Y-95692573D02*
X150474944Y-95658446D01*
X150431265Y-95567747D02*
X150404583Y-95546469D01*
X150404583Y-95546469D02*
X150373836Y-95531662D01*
X150373836Y-95531662D02*
X150340565Y-95524068D01*
X150215738Y-95567747D02*
X150202538Y-95580946D01*
X150340565Y-95524068D02*
X150306438Y-95524068D01*
X150145109Y-95617031D02*
X150111838Y-95624625D01*
X150111838Y-95624625D02*
X150077711Y-95624625D01*
X138125190Y-101142810D02*
X137668000Y-101600000D01*
X149987013Y-95580947D02*
X149351257Y-94945191D01*
X139573744Y-94945190D02*
X138125191Y-96393743D01*
X138125191Y-96393743D02*
X138125190Y-101142810D01*
X137668000Y-101600000D02*
X137312400Y-101600000D01*
X137312400Y-101600000D02*
X136042400Y-100330000D01*
X136042400Y-100330000D02*
X135890000Y-100330000D01*
X149225000Y-95250000D02*
X150460002Y-96485002D01*
X150460002Y-96485002D02*
X150460002Y-97409000D01*
X139700000Y-95250000D02*
X149225000Y-95250000D01*
X138430000Y-96520000D02*
X139700000Y-95250000D01*
X138430000Y-101498400D02*
X138430000Y-96520000D01*
X135890000Y-102870000D02*
X137058400Y-102870000D01*
X137058400Y-102870000D02*
X138430000Y-101498400D01*
X149161500Y-102284841D02*
X149161500Y-104301658D01*
X152068841Y-99377500D02*
X149161500Y-102284841D01*
X149161500Y-104301658D02*
X149161500Y-104584500D01*
X153670000Y-99377500D02*
X152068841Y-99377500D01*
X149415500Y-105156000D02*
X150495000Y-105156000D01*
X150495000Y-105156000D02*
X150685500Y-104965500D01*
X152400000Y-100076000D02*
X152400000Y-105156000D01*
X152400000Y-105156000D02*
X151130000Y-106426000D01*
D19*
G36*
X162133000Y-111333000D02*
X157656869Y-111333000D01*
X156511935Y-110188065D01*
X156373406Y-110095503D01*
X156210000Y-110062999D01*
X156209995Y-110063000D01*
X136066869Y-110063000D01*
X135223870Y-109220000D01*
X158650689Y-109220000D01*
X158741318Y-109675623D01*
X158999408Y-110061881D01*
X159385666Y-110319971D01*
X159841289Y-110410600D01*
X160198711Y-110410600D01*
X160654334Y-110319971D01*
X161040592Y-110061881D01*
X161298682Y-109675623D01*
X161389311Y-109220000D01*
X161298682Y-108764377D01*
X161040592Y-108378119D01*
X160654334Y-108120029D01*
X160198711Y-108029400D01*
X159841289Y-108029400D01*
X159385666Y-108120029D01*
X158999408Y-108378119D01*
X158741318Y-108764377D01*
X158650689Y-109220000D01*
X135223870Y-109220000D01*
X133777000Y-107773130D01*
X133777000Y-104546400D01*
X134540594Y-104546400D01*
X134540594Y-106273600D01*
X134565973Y-106401189D01*
X134638246Y-106509354D01*
X134746411Y-106581627D01*
X134874000Y-106607006D01*
X136906000Y-106607006D01*
X137033589Y-106581627D01*
X137141754Y-106509354D01*
X137214027Y-106401189D01*
X137239406Y-106273600D01*
X137239406Y-104546400D01*
X137214027Y-104418811D01*
X137141754Y-104310646D01*
X137033589Y-104238373D01*
X136906000Y-104212994D01*
X134874000Y-104212994D01*
X134746411Y-104238373D01*
X134638246Y-104310646D01*
X134565973Y-104418811D01*
X134540594Y-104546400D01*
X133777000Y-104546400D01*
X133777000Y-98149026D01*
X134282642Y-98149026D01*
X134285291Y-98164791D01*
X134539268Y-98692036D01*
X134975680Y-99081954D01*
X135347039Y-99211854D01*
X135255666Y-99230029D01*
X134869408Y-99488119D01*
X134611318Y-99874377D01*
X134520689Y-100330000D01*
X134611318Y-100785623D01*
X134869408Y-101171881D01*
X135255666Y-101429971D01*
X135711289Y-101520600D01*
X136068711Y-101520600D01*
X136524334Y-101429971D01*
X136553004Y-101410814D01*
X137027294Y-101885105D01*
X137051981Y-101901600D01*
X137158102Y-101972508D01*
X137312400Y-102003200D01*
X137354990Y-102003200D01*
X137078612Y-102279578D01*
X136910592Y-102028119D01*
X136524334Y-101770029D01*
X136068711Y-101679400D01*
X135711289Y-101679400D01*
X135255666Y-101770029D01*
X134869408Y-102028119D01*
X134611318Y-102414377D01*
X134520689Y-102870000D01*
X134611318Y-103325623D01*
X134869408Y-103711881D01*
X135255666Y-103969971D01*
X135711289Y-104060600D01*
X136068711Y-104060600D01*
X136524334Y-103969971D01*
X136910592Y-103711881D01*
X137168682Y-103325623D01*
X137184082Y-103248200D01*
X137212698Y-103242508D01*
X137343505Y-103155105D01*
X138715105Y-101783506D01*
X138802508Y-101652698D01*
X138812990Y-101600000D01*
X138833200Y-101498400D01*
X138833200Y-96687010D01*
X139867011Y-95653200D01*
X149057990Y-95653200D01*
X150056802Y-96652013D01*
X150056802Y-97066855D01*
X150013493Y-97110088D01*
X149933093Y-97303713D01*
X149932979Y-97434401D01*
X145756611Y-97434401D01*
X145053039Y-96730829D01*
X145053092Y-96669633D01*
X144973030Y-96475868D01*
X144824912Y-96327491D01*
X144631287Y-96247091D01*
X144421633Y-96246908D01*
X144227868Y-96326970D01*
X144079491Y-96475088D01*
X143999091Y-96668713D01*
X143999037Y-96730753D01*
X143986895Y-96742895D01*
X143899492Y-96873702D01*
X143868800Y-97028000D01*
X143868800Y-98971855D01*
X143825491Y-99015088D01*
X143745091Y-99208713D01*
X143744908Y-99418367D01*
X143824970Y-99612132D01*
X143973088Y-99760509D01*
X144166713Y-99840909D01*
X144306939Y-99841031D01*
X144253091Y-99970713D01*
X144252908Y-100180367D01*
X144332970Y-100374132D01*
X144415708Y-100457015D01*
X144333491Y-100539088D01*
X144253091Y-100732713D01*
X144252908Y-100942367D01*
X144332970Y-101136132D01*
X144415708Y-101219015D01*
X144333491Y-101301088D01*
X144253091Y-101494713D01*
X144252908Y-101704367D01*
X144332970Y-101898132D01*
X144481088Y-102046509D01*
X144674713Y-102126909D01*
X144884367Y-102127092D01*
X145078132Y-102047030D01*
X145122039Y-102003200D01*
X147660990Y-102003200D01*
X148186800Y-102529011D01*
X148186800Y-105670733D01*
X148108011Y-105703288D01*
X147954943Y-105856089D01*
X147803250Y-105704130D01*
X147490217Y-105574148D01*
X147151270Y-105573852D01*
X146838011Y-105703288D01*
X146684943Y-105856089D01*
X146533250Y-105704130D01*
X146220217Y-105574148D01*
X145881270Y-105573852D01*
X145568011Y-105703288D01*
X145328130Y-105942750D01*
X145198148Y-106255783D01*
X145197852Y-106594730D01*
X145327288Y-106907989D01*
X145328389Y-106909092D01*
X145289246Y-106935246D01*
X145216973Y-107043411D01*
X145191594Y-107171000D01*
X145191594Y-108221000D01*
X145216973Y-108348589D01*
X145289246Y-108456754D01*
X145397411Y-108529027D01*
X145525000Y-108554406D01*
X146509298Y-108554406D01*
X146575250Y-108620358D01*
X146657640Y-108537968D01*
X146696146Y-108530309D01*
X146731575Y-108721962D01*
X147168985Y-108869046D01*
X147629386Y-108837543D01*
X147908425Y-108721962D01*
X147945794Y-108519814D01*
X147955000Y-108510608D01*
X147964206Y-108519814D01*
X148001575Y-108721962D01*
X148438985Y-108869046D01*
X148899386Y-108837543D01*
X149178425Y-108721962D01*
X149218667Y-108504273D01*
X148590000Y-107875605D01*
X148575858Y-107889748D01*
X148490102Y-107803992D01*
X148476270Y-107601840D01*
X148575858Y-107502253D01*
X148590000Y-107516395D01*
X148604142Y-107502252D01*
X148783748Y-107681858D01*
X148769605Y-107696000D01*
X149056801Y-107983195D01*
X149137288Y-108177989D01*
X149376750Y-108417870D01*
X149689783Y-108547852D01*
X150028730Y-108548148D01*
X150134915Y-108504273D01*
X150501333Y-108504273D01*
X150541575Y-108721962D01*
X150978985Y-108869046D01*
X151439386Y-108837543D01*
X151718425Y-108721962D01*
X151758667Y-108504273D01*
X151130000Y-107875605D01*
X150501333Y-108504273D01*
X150134915Y-108504273D01*
X150341989Y-108418712D01*
X150581870Y-108179250D01*
X150663335Y-107983060D01*
X150950395Y-107696000D01*
X151309605Y-107696000D01*
X151938273Y-108324667D01*
X152155962Y-108284425D01*
X152303046Y-107847015D01*
X152271543Y-107386614D01*
X152155962Y-107107575D01*
X151938273Y-107067333D01*
X151309605Y-107696000D01*
X150950395Y-107696000D01*
X150936252Y-107681858D01*
X151115858Y-107502253D01*
X151130000Y-107516395D01*
X151417195Y-107229199D01*
X151611989Y-107148712D01*
X151851870Y-106909250D01*
X151947062Y-106680000D01*
X158650689Y-106680000D01*
X158741318Y-107135623D01*
X158999408Y-107521881D01*
X159385666Y-107779971D01*
X159841289Y-107870600D01*
X160198711Y-107870600D01*
X160654334Y-107779971D01*
X161040592Y-107521881D01*
X161298682Y-107135623D01*
X161389311Y-106680000D01*
X161298682Y-106224377D01*
X161040592Y-105838119D01*
X160654334Y-105580029D01*
X160198711Y-105489400D01*
X159841289Y-105489400D01*
X159385666Y-105580029D01*
X158999408Y-105838119D01*
X158741318Y-106224377D01*
X158650689Y-106680000D01*
X151947062Y-106680000D01*
X151981852Y-106596217D01*
X151982148Y-106257270D01*
X151949048Y-106177162D01*
X152685105Y-105441106D01*
X152772508Y-105310298D01*
X152781635Y-105264412D01*
X152803200Y-105156000D01*
X152803200Y-104140000D01*
X158650689Y-104140000D01*
X158741318Y-104595623D01*
X158999408Y-104981881D01*
X159385666Y-105239971D01*
X159841289Y-105330600D01*
X160198711Y-105330600D01*
X160654334Y-105239971D01*
X161040592Y-104981881D01*
X161298682Y-104595623D01*
X161389311Y-104140000D01*
X161298682Y-103684377D01*
X161040592Y-103298119D01*
X160654334Y-103040029D01*
X160198711Y-102949400D01*
X159841289Y-102949400D01*
X159385666Y-103040029D01*
X158999408Y-103298119D01*
X158741318Y-103684377D01*
X158650689Y-104140000D01*
X152803200Y-104140000D01*
X152803200Y-100418145D01*
X152846509Y-100374912D01*
X152926909Y-100181287D01*
X152927092Y-99971633D01*
X152848200Y-99780700D01*
X153327855Y-99780700D01*
X153371088Y-99824009D01*
X153564713Y-99904409D01*
X153774367Y-99904592D01*
X153968132Y-99824530D01*
X154116509Y-99676412D01*
X154196909Y-99482787D01*
X154197092Y-99273133D01*
X154170675Y-99209200D01*
X155788990Y-99209200D01*
X156229705Y-99649916D01*
X156309888Y-99703492D01*
X156360512Y-99737318D01*
X156433158Y-99751768D01*
X158566495Y-101885105D01*
X158697302Y-101972508D01*
X158725918Y-101978200D01*
X158741318Y-102055623D01*
X158999408Y-102441881D01*
X159385666Y-102699971D01*
X159841289Y-102790600D01*
X160198711Y-102790600D01*
X160654334Y-102699971D01*
X161040592Y-102441881D01*
X161298682Y-102055623D01*
X161389311Y-101600000D01*
X161298682Y-101144377D01*
X161040592Y-100758119D01*
X160654334Y-100500029D01*
X160198711Y-100409400D01*
X159841289Y-100409400D01*
X159385666Y-100500029D01*
X158999408Y-100758119D01*
X158831388Y-101009578D01*
X157285010Y-99463200D01*
X158730890Y-99463200D01*
X158741318Y-99515623D01*
X158999408Y-99901881D01*
X159385666Y-100159971D01*
X159841289Y-100250600D01*
X160198711Y-100250600D01*
X160654334Y-100159971D01*
X161040592Y-99901881D01*
X161298682Y-99515623D01*
X161389311Y-99060000D01*
X161298682Y-98604377D01*
X161040592Y-98218119D01*
X160654334Y-97960029D01*
X160198711Y-97869400D01*
X159841289Y-97869400D01*
X159385666Y-97960029D01*
X158999408Y-98218119D01*
X158741318Y-98604377D01*
X158730890Y-98656800D01*
X156885011Y-98656800D01*
X156538543Y-98310333D01*
X157925677Y-96923200D01*
X158730890Y-96923200D01*
X158741318Y-96975623D01*
X158999408Y-97361881D01*
X159385666Y-97619971D01*
X159841289Y-97710600D01*
X160198711Y-97710600D01*
X160654334Y-97619971D01*
X161040592Y-97361881D01*
X161298682Y-96975623D01*
X161389311Y-96520000D01*
X161298682Y-96064377D01*
X161040592Y-95678119D01*
X160654334Y-95420029D01*
X160198711Y-95329400D01*
X159841289Y-95329400D01*
X159385666Y-95420029D01*
X158999408Y-95678119D01*
X158741318Y-96064377D01*
X158730890Y-96116800D01*
X158301011Y-96116800D01*
X159240805Y-95177006D01*
X161036000Y-95177006D01*
X161163589Y-95151627D01*
X161271754Y-95079354D01*
X161344027Y-94971189D01*
X161369406Y-94843600D01*
X161369406Y-93116400D01*
X161344027Y-92988811D01*
X161271754Y-92880646D01*
X161163589Y-92808373D01*
X161036000Y-92782994D01*
X159004000Y-92782994D01*
X158876411Y-92808373D01*
X158768246Y-92880646D01*
X158695973Y-92988811D01*
X158670594Y-93116400D01*
X158670594Y-94606795D01*
X155842989Y-97434401D01*
X150986981Y-97434401D01*
X150987094Y-97304633D01*
X150907032Y-97110868D01*
X150863202Y-97066961D01*
X150863202Y-96485002D01*
X150860349Y-96470659D01*
X151024713Y-96538909D01*
X151234367Y-96539092D01*
X151428132Y-96459030D01*
X151576509Y-96310912D01*
X151656909Y-96117287D01*
X151657092Y-95907633D01*
X151577030Y-95713868D01*
X151428912Y-95565491D01*
X151235287Y-95485091D01*
X151025633Y-95484908D01*
X150864135Y-95551638D01*
X150860441Y-95535453D01*
X150848268Y-95508249D01*
X150847452Y-95504148D01*
X150844366Y-95499529D01*
X150841937Y-95494101D01*
X150840450Y-95488336D01*
X150839983Y-95482803D01*
X150838065Y-95479090D01*
X150830621Y-95450233D01*
X150815814Y-95419486D01*
X150797891Y-95395670D01*
X150796183Y-95391854D01*
X150792147Y-95388039D01*
X150788568Y-95383283D01*
X150785842Y-95378006D01*
X150784154Y-95372710D01*
X150781454Y-95369513D01*
X150767774Y-95343033D01*
X150746496Y-95316351D01*
X150723729Y-95297126D01*
X150721214Y-95293785D01*
X150716428Y-95290962D01*
X150711881Y-95287122D01*
X150708049Y-95282584D01*
X150705226Y-95277799D01*
X150701884Y-95275284D01*
X150682654Y-95252511D01*
X150655973Y-95231233D01*
X150629490Y-95217552D01*
X150626295Y-95214854D01*
X150621002Y-95213167D01*
X150615721Y-95210439D01*
X150610977Y-95206869D01*
X150607158Y-95202829D01*
X150603338Y-95201120D01*
X150579526Y-95183199D01*
X150548778Y-95168391D01*
X150519916Y-95160946D01*
X150516201Y-95159027D01*
X150510666Y-95158560D01*
X150504911Y-95157076D01*
X150499482Y-95154646D01*
X150494863Y-95151560D01*
X150490762Y-95150744D01*
X150463558Y-95138571D01*
X150430287Y-95130977D01*
X150400492Y-95130141D01*
X150396444Y-95129097D01*
X150390946Y-95129873D01*
X150384998Y-95129706D01*
X150379167Y-95128546D01*
X150373976Y-95126565D01*
X150369795Y-95126682D01*
X150340565Y-95120868D01*
X150306438Y-95120868D01*
X150277208Y-95126682D01*
X150273028Y-95126565D01*
X150267838Y-95128546D01*
X150262005Y-95129706D01*
X150256064Y-95129873D01*
X150250560Y-95129096D01*
X150246508Y-95130141D01*
X150216717Y-95130977D01*
X150183445Y-95138571D01*
X150156241Y-95150744D01*
X150152140Y-95151560D01*
X150147521Y-95154646D01*
X150142093Y-95157075D01*
X150136336Y-95158560D01*
X150134954Y-95158677D01*
X149636362Y-94660086D01*
X149505555Y-94572683D01*
X149505550Y-94572682D01*
X149351257Y-94541991D01*
X139573744Y-94541990D01*
X139419446Y-94572682D01*
X139288638Y-94660085D01*
X137840086Y-96108638D01*
X137752683Y-96239445D01*
X137721991Y-96393743D01*
X137721990Y-100975799D01*
X137500990Y-101196800D01*
X137479411Y-101196800D01*
X137128448Y-100845837D01*
X137168682Y-100785623D01*
X137259311Y-100330000D01*
X137168682Y-99874377D01*
X136910592Y-99488119D01*
X136524334Y-99230029D01*
X136432961Y-99211854D01*
X136804320Y-99081954D01*
X137240732Y-98692036D01*
X137494709Y-98164791D01*
X137497358Y-98149026D01*
X137376217Y-97917000D01*
X136017000Y-97917000D01*
X136017000Y-97937000D01*
X135763000Y-97937000D01*
X135763000Y-97917000D01*
X134403783Y-97917000D01*
X134282642Y-98149026D01*
X133777000Y-98149026D01*
X133777000Y-97430974D01*
X134282642Y-97430974D01*
X134403783Y-97663000D01*
X135763000Y-97663000D01*
X135763000Y-96449076D01*
X136017000Y-96449076D01*
X136017000Y-97663000D01*
X137376217Y-97663000D01*
X137497358Y-97430974D01*
X137494709Y-97415209D01*
X137240732Y-96887964D01*
X136804320Y-96498046D01*
X136251913Y-96304816D01*
X136017000Y-96449076D01*
X135763000Y-96449076D01*
X135528087Y-96304816D01*
X134975680Y-96498046D01*
X134539268Y-96887964D01*
X134285291Y-97415209D01*
X134282642Y-97430974D01*
X133777000Y-97430974D01*
X133777000Y-95426870D01*
X136066869Y-93137000D01*
X156209995Y-93137000D01*
X156210000Y-93137001D01*
X156373406Y-93104497D01*
X156511935Y-93011935D01*
X157656869Y-91867000D01*
X162133000Y-91867000D01*
X162133000Y-111333000D01*
X162133000Y-111333000D01*
G37*
X162133000Y-111333000D02*
X157656869Y-111333000D01*
X156511935Y-110188065D01*
X156373406Y-110095503D01*
X156210000Y-110062999D01*
X156209995Y-110063000D01*
X136066869Y-110063000D01*
X135223870Y-109220000D01*
X158650689Y-109220000D01*
X158741318Y-109675623D01*
X158999408Y-110061881D01*
X159385666Y-110319971D01*
X159841289Y-110410600D01*
X160198711Y-110410600D01*
X160654334Y-110319971D01*
X161040592Y-110061881D01*
X161298682Y-109675623D01*
X161389311Y-109220000D01*
X161298682Y-108764377D01*
X161040592Y-108378119D01*
X160654334Y-108120029D01*
X160198711Y-108029400D01*
X159841289Y-108029400D01*
X159385666Y-108120029D01*
X158999408Y-108378119D01*
X158741318Y-108764377D01*
X158650689Y-109220000D01*
X135223870Y-109220000D01*
X133777000Y-107773130D01*
X133777000Y-104546400D01*
X134540594Y-104546400D01*
X134540594Y-106273600D01*
X134565973Y-106401189D01*
X134638246Y-106509354D01*
X134746411Y-106581627D01*
X134874000Y-106607006D01*
X136906000Y-106607006D01*
X137033589Y-106581627D01*
X137141754Y-106509354D01*
X137214027Y-106401189D01*
X137239406Y-106273600D01*
X137239406Y-104546400D01*
X137214027Y-104418811D01*
X137141754Y-104310646D01*
X137033589Y-104238373D01*
X136906000Y-104212994D01*
X134874000Y-104212994D01*
X134746411Y-104238373D01*
X134638246Y-104310646D01*
X134565973Y-104418811D01*
X134540594Y-104546400D01*
X133777000Y-104546400D01*
X133777000Y-98149026D01*
X134282642Y-98149026D01*
X134285291Y-98164791D01*
X134539268Y-98692036D01*
X134975680Y-99081954D01*
X135347039Y-99211854D01*
X135255666Y-99230029D01*
X134869408Y-99488119D01*
X134611318Y-99874377D01*
X134520689Y-100330000D01*
X134611318Y-100785623D01*
X134869408Y-101171881D01*
X135255666Y-101429971D01*
X135711289Y-101520600D01*
X136068711Y-101520600D01*
X136524334Y-101429971D01*
X136553004Y-101410814D01*
X137027294Y-101885105D01*
X137051981Y-101901600D01*
X137158102Y-101972508D01*
X137312400Y-102003200D01*
X137354990Y-102003200D01*
X137078612Y-102279578D01*
X136910592Y-102028119D01*
X136524334Y-101770029D01*
X136068711Y-101679400D01*
X135711289Y-101679400D01*
X135255666Y-101770029D01*
X134869408Y-102028119D01*
X134611318Y-102414377D01*
X134520689Y-102870000D01*
X134611318Y-103325623D01*
X134869408Y-103711881D01*
X135255666Y-103969971D01*
X135711289Y-104060600D01*
X136068711Y-104060600D01*
X136524334Y-103969971D01*
X136910592Y-103711881D01*
X137168682Y-103325623D01*
X137184082Y-103248200D01*
X137212698Y-103242508D01*
X137343505Y-103155105D01*
X138715105Y-101783506D01*
X138802508Y-101652698D01*
X138812990Y-101600000D01*
X138833200Y-101498400D01*
X138833200Y-96687010D01*
X139867011Y-95653200D01*
X149057990Y-95653200D01*
X150056802Y-96652013D01*
X150056802Y-97066855D01*
X150013493Y-97110088D01*
X149933093Y-97303713D01*
X149932979Y-97434401D01*
X145756611Y-97434401D01*
X145053039Y-96730829D01*
X145053092Y-96669633D01*
X144973030Y-96475868D01*
X144824912Y-96327491D01*
X144631287Y-96247091D01*
X144421633Y-96246908D01*
X144227868Y-96326970D01*
X144079491Y-96475088D01*
X143999091Y-96668713D01*
X143999037Y-96730753D01*
X143986895Y-96742895D01*
X143899492Y-96873702D01*
X143868800Y-97028000D01*
X143868800Y-98971855D01*
X143825491Y-99015088D01*
X143745091Y-99208713D01*
X143744908Y-99418367D01*
X143824970Y-99612132D01*
X143973088Y-99760509D01*
X144166713Y-99840909D01*
X144306939Y-99841031D01*
X144253091Y-99970713D01*
X144252908Y-100180367D01*
X144332970Y-100374132D01*
X144415708Y-100457015D01*
X144333491Y-100539088D01*
X144253091Y-100732713D01*
X144252908Y-100942367D01*
X144332970Y-101136132D01*
X144415708Y-101219015D01*
X144333491Y-101301088D01*
X144253091Y-101494713D01*
X144252908Y-101704367D01*
X144332970Y-101898132D01*
X144481088Y-102046509D01*
X144674713Y-102126909D01*
X144884367Y-102127092D01*
X145078132Y-102047030D01*
X145122039Y-102003200D01*
X147660990Y-102003200D01*
X148186800Y-102529011D01*
X148186800Y-105670733D01*
X148108011Y-105703288D01*
X147954943Y-105856089D01*
X147803250Y-105704130D01*
X147490217Y-105574148D01*
X147151270Y-105573852D01*
X146838011Y-105703288D01*
X146684943Y-105856089D01*
X146533250Y-105704130D01*
X146220217Y-105574148D01*
X145881270Y-105573852D01*
X145568011Y-105703288D01*
X145328130Y-105942750D01*
X145198148Y-106255783D01*
X145197852Y-106594730D01*
X145327288Y-106907989D01*
X145328389Y-106909092D01*
X145289246Y-106935246D01*
X145216973Y-107043411D01*
X145191594Y-107171000D01*
X145191594Y-108221000D01*
X145216973Y-108348589D01*
X145289246Y-108456754D01*
X145397411Y-108529027D01*
X145525000Y-108554406D01*
X146509298Y-108554406D01*
X146575250Y-108620358D01*
X146657640Y-108537968D01*
X146696146Y-108530309D01*
X146731575Y-108721962D01*
X147168985Y-108869046D01*
X147629386Y-108837543D01*
X147908425Y-108721962D01*
X147945794Y-108519814D01*
X147955000Y-108510608D01*
X147964206Y-108519814D01*
X148001575Y-108721962D01*
X148438985Y-108869046D01*
X148899386Y-108837543D01*
X149178425Y-108721962D01*
X149218667Y-108504273D01*
X148590000Y-107875605D01*
X148575858Y-107889748D01*
X148490102Y-107803992D01*
X148476270Y-107601840D01*
X148575858Y-107502253D01*
X148590000Y-107516395D01*
X148604142Y-107502252D01*
X148783748Y-107681858D01*
X148769605Y-107696000D01*
X149056801Y-107983195D01*
X149137288Y-108177989D01*
X149376750Y-108417870D01*
X149689783Y-108547852D01*
X150028730Y-108548148D01*
X150134915Y-108504273D01*
X150501333Y-108504273D01*
X150541575Y-108721962D01*
X150978985Y-108869046D01*
X151439386Y-108837543D01*
X151718425Y-108721962D01*
X151758667Y-108504273D01*
X151130000Y-107875605D01*
X150501333Y-108504273D01*
X150134915Y-108504273D01*
X150341989Y-108418712D01*
X150581870Y-108179250D01*
X150663335Y-107983060D01*
X150950395Y-107696000D01*
X151309605Y-107696000D01*
X151938273Y-108324667D01*
X152155962Y-108284425D01*
X152303046Y-107847015D01*
X152271543Y-107386614D01*
X152155962Y-107107575D01*
X151938273Y-107067333D01*
X151309605Y-107696000D01*
X150950395Y-107696000D01*
X150936252Y-107681858D01*
X151115858Y-107502253D01*
X151130000Y-107516395D01*
X151417195Y-107229199D01*
X151611989Y-107148712D01*
X151851870Y-106909250D01*
X151947062Y-106680000D01*
X158650689Y-106680000D01*
X158741318Y-107135623D01*
X158999408Y-107521881D01*
X159385666Y-107779971D01*
X159841289Y-107870600D01*
X160198711Y-107870600D01*
X160654334Y-107779971D01*
X161040592Y-107521881D01*
X161298682Y-107135623D01*
X161389311Y-106680000D01*
X161298682Y-106224377D01*
X161040592Y-105838119D01*
X160654334Y-105580029D01*
X160198711Y-105489400D01*
X159841289Y-105489400D01*
X159385666Y-105580029D01*
X158999408Y-105838119D01*
X158741318Y-106224377D01*
X158650689Y-106680000D01*
X151947062Y-106680000D01*
X151981852Y-106596217D01*
X151982148Y-106257270D01*
X151949048Y-106177162D01*
X152685105Y-105441106D01*
X152772508Y-105310298D01*
X152781635Y-105264412D01*
X152803200Y-105156000D01*
X152803200Y-104140000D01*
X158650689Y-104140000D01*
X158741318Y-104595623D01*
X158999408Y-104981881D01*
X159385666Y-105239971D01*
X159841289Y-105330600D01*
X160198711Y-105330600D01*
X160654334Y-105239971D01*
X161040592Y-104981881D01*
X161298682Y-104595623D01*
X161389311Y-104140000D01*
X161298682Y-103684377D01*
X161040592Y-103298119D01*
X160654334Y-103040029D01*
X160198711Y-102949400D01*
X159841289Y-102949400D01*
X159385666Y-103040029D01*
X158999408Y-103298119D01*
X158741318Y-103684377D01*
X158650689Y-104140000D01*
X152803200Y-104140000D01*
X152803200Y-100418145D01*
X152846509Y-100374912D01*
X152926909Y-100181287D01*
X152927092Y-99971633D01*
X152848200Y-99780700D01*
X153327855Y-99780700D01*
X153371088Y-99824009D01*
X153564713Y-99904409D01*
X153774367Y-99904592D01*
X153968132Y-99824530D01*
X154116509Y-99676412D01*
X154196909Y-99482787D01*
X154197092Y-99273133D01*
X154170675Y-99209200D01*
X155788990Y-99209200D01*
X156229705Y-99649916D01*
X156309888Y-99703492D01*
X156360512Y-99737318D01*
X156433158Y-99751768D01*
X158566495Y-101885105D01*
X158697302Y-101972508D01*
X158725918Y-101978200D01*
X158741318Y-102055623D01*
X158999408Y-102441881D01*
X159385666Y-102699971D01*
X159841289Y-102790600D01*
X160198711Y-102790600D01*
X160654334Y-102699971D01*
X161040592Y-102441881D01*
X161298682Y-102055623D01*
X161389311Y-101600000D01*
X161298682Y-101144377D01*
X161040592Y-100758119D01*
X160654334Y-100500029D01*
X160198711Y-100409400D01*
X159841289Y-100409400D01*
X159385666Y-100500029D01*
X158999408Y-100758119D01*
X158831388Y-101009578D01*
X157285010Y-99463200D01*
X158730890Y-99463200D01*
X158741318Y-99515623D01*
X158999408Y-99901881D01*
X159385666Y-100159971D01*
X159841289Y-100250600D01*
X160198711Y-100250600D01*
X160654334Y-100159971D01*
X161040592Y-99901881D01*
X161298682Y-99515623D01*
X161389311Y-99060000D01*
X161298682Y-98604377D01*
X161040592Y-98218119D01*
X160654334Y-97960029D01*
X160198711Y-97869400D01*
X159841289Y-97869400D01*
X159385666Y-97960029D01*
X158999408Y-98218119D01*
X158741318Y-98604377D01*
X158730890Y-98656800D01*
X156885011Y-98656800D01*
X156538543Y-98310333D01*
X157925677Y-96923200D01*
X158730890Y-96923200D01*
X158741318Y-96975623D01*
X158999408Y-97361881D01*
X159385666Y-97619971D01*
X159841289Y-97710600D01*
X160198711Y-97710600D01*
X160654334Y-97619971D01*
X161040592Y-97361881D01*
X161298682Y-96975623D01*
X161389311Y-96520000D01*
X161298682Y-96064377D01*
X161040592Y-95678119D01*
X160654334Y-95420029D01*
X160198711Y-95329400D01*
X159841289Y-95329400D01*
X159385666Y-95420029D01*
X158999408Y-95678119D01*
X158741318Y-96064377D01*
X158730890Y-96116800D01*
X158301011Y-96116800D01*
X159240805Y-95177006D01*
X161036000Y-95177006D01*
X161163589Y-95151627D01*
X161271754Y-95079354D01*
X161344027Y-94971189D01*
X161369406Y-94843600D01*
X161369406Y-93116400D01*
X161344027Y-92988811D01*
X161271754Y-92880646D01*
X161163589Y-92808373D01*
X161036000Y-92782994D01*
X159004000Y-92782994D01*
X158876411Y-92808373D01*
X158768246Y-92880646D01*
X158695973Y-92988811D01*
X158670594Y-93116400D01*
X158670594Y-94606795D01*
X155842989Y-97434401D01*
X150986981Y-97434401D01*
X150987094Y-97304633D01*
X150907032Y-97110868D01*
X150863202Y-97066961D01*
X150863202Y-96485002D01*
X150860349Y-96470659D01*
X151024713Y-96538909D01*
X151234367Y-96539092D01*
X151428132Y-96459030D01*
X151576509Y-96310912D01*
X151656909Y-96117287D01*
X151657092Y-95907633D01*
X151577030Y-95713868D01*
X151428912Y-95565491D01*
X151235287Y-95485091D01*
X151025633Y-95484908D01*
X150864135Y-95551638D01*
X150860441Y-95535453D01*
X150848268Y-95508249D01*
X150847452Y-95504148D01*
X150844366Y-95499529D01*
X150841937Y-95494101D01*
X150840450Y-95488336D01*
X150839983Y-95482803D01*
X150838065Y-95479090D01*
X150830621Y-95450233D01*
X150815814Y-95419486D01*
X150797891Y-95395670D01*
X150796183Y-95391854D01*
X150792147Y-95388039D01*
X150788568Y-95383283D01*
X150785842Y-95378006D01*
X150784154Y-95372710D01*
X150781454Y-95369513D01*
X150767774Y-95343033D01*
X150746496Y-95316351D01*
X150723729Y-95297126D01*
X150721214Y-95293785D01*
X150716428Y-95290962D01*
X150711881Y-95287122D01*
X150708049Y-95282584D01*
X150705226Y-95277799D01*
X150701884Y-95275284D01*
X150682654Y-95252511D01*
X150655973Y-95231233D01*
X150629490Y-95217552D01*
X150626295Y-95214854D01*
X150621002Y-95213167D01*
X150615721Y-95210439D01*
X150610977Y-95206869D01*
X150607158Y-95202829D01*
X150603338Y-95201120D01*
X150579526Y-95183199D01*
X150548778Y-95168391D01*
X150519916Y-95160946D01*
X150516201Y-95159027D01*
X150510666Y-95158560D01*
X150504911Y-95157076D01*
X150499482Y-95154646D01*
X150494863Y-95151560D01*
X150490762Y-95150744D01*
X150463558Y-95138571D01*
X150430287Y-95130977D01*
X150400492Y-95130141D01*
X150396444Y-95129097D01*
X150390946Y-95129873D01*
X150384998Y-95129706D01*
X150379167Y-95128546D01*
X150373976Y-95126565D01*
X150369795Y-95126682D01*
X150340565Y-95120868D01*
X150306438Y-95120868D01*
X150277208Y-95126682D01*
X150273028Y-95126565D01*
X150267838Y-95128546D01*
X150262005Y-95129706D01*
X150256064Y-95129873D01*
X150250560Y-95129096D01*
X150246508Y-95130141D01*
X150216717Y-95130977D01*
X150183445Y-95138571D01*
X150156241Y-95150744D01*
X150152140Y-95151560D01*
X150147521Y-95154646D01*
X150142093Y-95157075D01*
X150136336Y-95158560D01*
X150134954Y-95158677D01*
X149636362Y-94660086D01*
X149505555Y-94572683D01*
X149505550Y-94572682D01*
X149351257Y-94541991D01*
X139573744Y-94541990D01*
X139419446Y-94572682D01*
X139288638Y-94660085D01*
X137840086Y-96108638D01*
X137752683Y-96239445D01*
X137721991Y-96393743D01*
X137721990Y-100975799D01*
X137500990Y-101196800D01*
X137479411Y-101196800D01*
X137128448Y-100845837D01*
X137168682Y-100785623D01*
X137259311Y-100330000D01*
X137168682Y-99874377D01*
X136910592Y-99488119D01*
X136524334Y-99230029D01*
X136432961Y-99211854D01*
X136804320Y-99081954D01*
X137240732Y-98692036D01*
X137494709Y-98164791D01*
X137497358Y-98149026D01*
X137376217Y-97917000D01*
X136017000Y-97917000D01*
X136017000Y-97937000D01*
X135763000Y-97937000D01*
X135763000Y-97917000D01*
X134403783Y-97917000D01*
X134282642Y-98149026D01*
X133777000Y-98149026D01*
X133777000Y-97430974D01*
X134282642Y-97430974D01*
X134403783Y-97663000D01*
X135763000Y-97663000D01*
X135763000Y-96449076D01*
X136017000Y-96449076D01*
X136017000Y-97663000D01*
X137376217Y-97663000D01*
X137497358Y-97430974D01*
X137494709Y-97415209D01*
X137240732Y-96887964D01*
X136804320Y-96498046D01*
X136251913Y-96304816D01*
X136017000Y-96449076D01*
X135763000Y-96449076D01*
X135528087Y-96304816D01*
X134975680Y-96498046D01*
X134539268Y-96887964D01*
X134285291Y-97415209D01*
X134282642Y-97430974D01*
X133777000Y-97430974D01*
X133777000Y-95426870D01*
X136066869Y-93137000D01*
X156209995Y-93137000D01*
X156210000Y-93137001D01*
X156373406Y-93104497D01*
X156511935Y-93011935D01*
X157656869Y-91867000D01*
X162133000Y-91867000D01*
X162133000Y-111333000D01*
G36*
X147419898Y-107588008D02*
X147433730Y-107790160D01*
X147334143Y-107889748D01*
X147320000Y-107875605D01*
X147305858Y-107889748D01*
X147126253Y-107710143D01*
X147140395Y-107696000D01*
X147126253Y-107681858D01*
X147305858Y-107502253D01*
X147320000Y-107516395D01*
X147334143Y-107502253D01*
X147419898Y-107588008D01*
X147419898Y-107588008D01*
G37*
X147419898Y-107588008D02*
X147433730Y-107790160D01*
X147334143Y-107889748D01*
X147320000Y-107875605D01*
X147305858Y-107889748D01*
X147126253Y-107710143D01*
X147140395Y-107696000D01*
X147126253Y-107681858D01*
X147305858Y-107502253D01*
X147320000Y-107516395D01*
X147334143Y-107502253D01*
X147419898Y-107588008D01*
M02*
