G04 #@! TF.FileFunction,Other,Fab,Top*
%FSLAX46Y46*%
G04 Gerber Fmt 4.6, Leading zero omitted, Abs format (unit mm)*
G04 Created by KiCad (PCBNEW (2016-11-25 revision 30df041)-master) date Sun Nov 27 00:56:35 2016*
%MOMM*%
%LPD*%
G01*
G04 APERTURE LIST*
%ADD10C,0.100000*%
%ADD11C,0.150000*%
G04 APERTURE END LIST*
D10*
D11*
X142856000Y-98590000D02*
X142856000Y-96990000D01*
X142856000Y-96990000D02*
X143656000Y-96990000D01*
X143656000Y-96990000D02*
X143656000Y-98590000D01*
X143656000Y-98590000D02*
X142856000Y-98590000D01*
X150790000Y-100560000D02*
X149790000Y-101560000D01*
X150790000Y-96560000D02*
X150790000Y-100560000D01*
X146390000Y-96560000D02*
X150790000Y-96560000D01*
X146390000Y-101560000D02*
X146390000Y-96560000D01*
X149790000Y-101560000D02*
X146390000Y-101560000D01*
X157932380Y-104028571D02*
X156932380Y-104028571D01*
X157932380Y-103457142D02*
X157360952Y-103885714D01*
X156932380Y-103457142D02*
X157503809Y-104028571D01*
X157884761Y-102647619D02*
X157932380Y-102742857D01*
X157932380Y-102933333D01*
X157884761Y-103028571D01*
X157789523Y-103076190D01*
X157408571Y-103076190D01*
X157313333Y-103028571D01*
X157265714Y-102933333D01*
X157265714Y-102742857D01*
X157313333Y-102647619D01*
X157408571Y-102600000D01*
X157503809Y-102600000D01*
X157599047Y-103076190D01*
X157265714Y-102266666D02*
X157932380Y-102028571D01*
X157265714Y-101790476D02*
X157932380Y-102028571D01*
X158170476Y-102123809D01*
X158218095Y-102171428D01*
X158265714Y-102266666D01*
X157265714Y-101409523D02*
X158265714Y-101409523D01*
X157313333Y-101409523D02*
X157265714Y-101314285D01*
X157265714Y-101123809D01*
X157313333Y-101028571D01*
X157360952Y-100980952D01*
X157456190Y-100933333D01*
X157741904Y-100933333D01*
X157837142Y-100980952D01*
X157884761Y-101028571D01*
X157932380Y-101123809D01*
X157932380Y-101314285D01*
X157884761Y-101409523D01*
X157932380Y-100076190D02*
X157408571Y-100076190D01*
X157313333Y-100123809D01*
X157265714Y-100219047D01*
X157265714Y-100409523D01*
X157313333Y-100504761D01*
X157884761Y-100076190D02*
X157932380Y-100171428D01*
X157932380Y-100409523D01*
X157884761Y-100504761D01*
X157789523Y-100552380D01*
X157694285Y-100552380D01*
X157599047Y-100504761D01*
X157551428Y-100409523D01*
X157551428Y-100171428D01*
X157503809Y-100076190D01*
X157932380Y-99171428D02*
X156932380Y-99171428D01*
X157884761Y-99171428D02*
X157932380Y-99266666D01*
X157932380Y-99457142D01*
X157884761Y-99552380D01*
X157837142Y-99600000D01*
X157741904Y-99647619D01*
X157456190Y-99647619D01*
X157360952Y-99600000D01*
X157313333Y-99552380D01*
X157265714Y-99457142D01*
X157265714Y-99266666D01*
X157313333Y-99171428D01*
X138374380Y-104671428D02*
X137374380Y-104671428D01*
X137707714Y-104195238D02*
X138374380Y-104195238D01*
X137802952Y-104195238D02*
X137755333Y-104147619D01*
X137707714Y-104052380D01*
X137707714Y-103909523D01*
X137755333Y-103814285D01*
X137850571Y-103766666D01*
X138374380Y-103766666D01*
X137707714Y-103433333D02*
X137707714Y-103052380D01*
X137374380Y-103290476D02*
X138231523Y-103290476D01*
X138326761Y-103242857D01*
X138374380Y-103147619D01*
X138374380Y-103052380D01*
X138326761Y-102338095D02*
X138374380Y-102433333D01*
X138374380Y-102623809D01*
X138326761Y-102719047D01*
X138231523Y-102766666D01*
X137850571Y-102766666D01*
X137755333Y-102719047D01*
X137707714Y-102623809D01*
X137707714Y-102433333D01*
X137755333Y-102338095D01*
X137850571Y-102290476D01*
X137945809Y-102290476D01*
X138041047Y-102766666D01*
X138374380Y-101861904D02*
X137707714Y-101861904D01*
X137898190Y-101861904D02*
X137802952Y-101814285D01*
X137755333Y-101766666D01*
X137707714Y-101671428D01*
X137707714Y-101576190D01*
X137707714Y-101385714D02*
X137707714Y-101004761D01*
X138374380Y-101242857D02*
X137517238Y-101242857D01*
X137422000Y-101195238D01*
X137374380Y-101100000D01*
X137374380Y-101004761D01*
X138374380Y-100242857D02*
X137850571Y-100242857D01*
X137755333Y-100290476D01*
X137707714Y-100385714D01*
X137707714Y-100576190D01*
X137755333Y-100671428D01*
X138326761Y-100242857D02*
X138374380Y-100338095D01*
X138374380Y-100576190D01*
X138326761Y-100671428D01*
X138231523Y-100719047D01*
X138136285Y-100719047D01*
X138041047Y-100671428D01*
X137993428Y-100576190D01*
X137993428Y-100338095D01*
X137945809Y-100242857D01*
X138326761Y-99338095D02*
X138374380Y-99433333D01*
X138374380Y-99623809D01*
X138326761Y-99719047D01*
X138279142Y-99766666D01*
X138183904Y-99814285D01*
X137898190Y-99814285D01*
X137802952Y-99766666D01*
X137755333Y-99719047D01*
X137707714Y-99623809D01*
X137707714Y-99433333D01*
X137755333Y-99338095D01*
X138326761Y-98528571D02*
X138374380Y-98623809D01*
X138374380Y-98814285D01*
X138326761Y-98909523D01*
X138231523Y-98957142D01*
X137850571Y-98957142D01*
X137755333Y-98909523D01*
X137707714Y-98814285D01*
X137707714Y-98623809D01*
X137755333Y-98528571D01*
X137850571Y-98480952D01*
X137945809Y-98480952D01*
X138041047Y-98957142D01*
X147232857Y-109878761D02*
X147375714Y-109926380D01*
X147613809Y-109926380D01*
X147709047Y-109878761D01*
X147756666Y-109831142D01*
X147804285Y-109735904D01*
X147804285Y-109640666D01*
X147756666Y-109545428D01*
X147709047Y-109497809D01*
X147613809Y-109450190D01*
X147423333Y-109402571D01*
X147328095Y-109354952D01*
X147280476Y-109307333D01*
X147232857Y-109212095D01*
X147232857Y-109116857D01*
X147280476Y-109021619D01*
X147328095Y-108974000D01*
X147423333Y-108926380D01*
X147661428Y-108926380D01*
X147804285Y-108974000D01*
X148137619Y-108926380D02*
X148375714Y-109926380D01*
X148566190Y-109212095D01*
X148756666Y-109926380D01*
X148994761Y-108926380D01*
X149375714Y-109926380D02*
X149375714Y-108926380D01*
X149613809Y-108926380D01*
X149756666Y-108974000D01*
X149851904Y-109069238D01*
X149899523Y-109164476D01*
X149947142Y-109354952D01*
X149947142Y-109497809D01*
X149899523Y-109688285D01*
X149851904Y-109783523D01*
X149756666Y-109878761D01*
X149613809Y-109926380D01*
X149375714Y-109926380D01*
M02*
