G04 #@! TF.FileFunction,Copper,L1,Top,Signal*
%FSLAX46Y46*%
G04 Gerber Fmt 4.6, Leading zero omitted, Abs format (unit mm)*
G04 Created by KiCad (PCBNEW (2016-11-25 revision 30df041)-master) date Sun Nov 27 00:56:35 2016*
%MOMM*%
%LPD*%
G01*
G04 APERTURE LIST*
%ADD10C,0.100000*%
%ADD11R,1.501140X2.999740*%
%ADD12R,0.750000X1.200000*%
%ADD13O,2.032000X1.727200*%
%ADD14R,2.032000X1.727200*%
%ADD15R,1.050000X0.450000*%
%ADD16R,1.470000X0.895000*%
%ADD17C,1.050000*%
%ADD18R,1.050000X1.050000*%
%ADD19C,0.800000*%
%ADD20C,0.400000*%
%ADD21C,0.250000*%
%ADD22C,0.500000*%
%ADD23C,0.152400*%
%ADD24C,0.254000*%
G04 APERTURE END LIST*
D10*
D11*
X140208000Y-99601020D03*
X140208000Y-103598980D03*
D12*
X143256000Y-98740000D03*
X143256000Y-96840000D03*
D13*
X160020000Y-109220000D03*
X160020000Y-106680000D03*
X160020000Y-104140000D03*
X160020000Y-101600000D03*
X160020000Y-99060000D03*
X160020000Y-96520000D03*
D14*
X160020000Y-93980000D03*
X135890000Y-105410000D03*
D13*
X135890000Y-102870000D03*
X135890000Y-100330000D03*
X135890000Y-97790000D03*
D15*
X151365000Y-101335000D03*
X151365000Y-100685000D03*
X151365000Y-100035000D03*
X151365000Y-99385000D03*
X151365000Y-98735000D03*
X151365000Y-98085000D03*
X151365000Y-97435000D03*
X151365000Y-96785000D03*
X145815000Y-96785000D03*
X145815000Y-97435000D03*
X145815000Y-98085000D03*
X145815000Y-98735000D03*
X145815000Y-99385000D03*
X145815000Y-100035000D03*
X145815000Y-100685000D03*
X145815000Y-101335000D03*
D16*
X147855000Y-97717500D03*
X147855000Y-98612500D03*
X147855000Y-99507500D03*
X147855000Y-100402500D03*
X149325000Y-97717500D03*
X149325000Y-98612500D03*
X149325000Y-99507500D03*
X149325000Y-100402500D03*
D17*
X146050000Y-106426000D03*
X151130000Y-106426000D03*
X149860000Y-106426000D03*
X148590000Y-106426000D03*
X147320000Y-106426000D03*
X151130000Y-107696000D03*
X149860000Y-107696000D03*
X148590000Y-107696000D03*
X147320000Y-107696000D03*
D18*
X146050000Y-107696000D03*
D19*
X142747996Y-100520500D03*
D20*
X144272000Y-99314000D03*
X144526000Y-96774000D03*
X144780000Y-100076000D03*
X144780000Y-100838000D03*
X144780000Y-101600000D03*
X151130000Y-96012000D03*
X150460002Y-97409000D03*
X149161500Y-104584500D03*
X153670000Y-99377500D03*
X150685500Y-104965500D03*
X149415500Y-105156000D03*
X152400000Y-100076000D03*
D21*
X145815000Y-99385000D02*
X146590000Y-99385000D01*
X146590000Y-99385000D02*
X146665001Y-99309999D01*
X143256000Y-96615000D02*
X143256000Y-96840000D01*
X146665001Y-99309999D02*
X146665001Y-96299999D01*
X146665001Y-96299999D02*
X146355002Y-95990000D01*
X146355002Y-95990000D02*
X143881000Y-95990000D01*
X143881000Y-95990000D02*
X143256000Y-96615000D01*
X143256000Y-98740000D02*
X145810000Y-98740000D01*
X145810000Y-98740000D02*
X145815000Y-98735000D01*
X146050000Y-107696000D02*
X141432280Y-107696000D01*
X141432280Y-107696000D02*
X139146280Y-105410000D01*
D22*
X139146280Y-105410000D02*
X135890000Y-105410000D01*
X140208000Y-103598980D02*
X140208000Y-104348280D01*
X140208000Y-104348280D02*
X139146280Y-105410000D01*
D21*
X141478000Y-99893000D02*
X141478000Y-101579680D01*
X141478000Y-101579680D02*
X140208000Y-102849680D01*
X140208000Y-102849680D02*
X140208000Y-103598980D01*
X143256000Y-98740000D02*
X142631000Y-98740000D01*
X142631000Y-98740000D02*
X141478000Y-99893000D01*
D23*
X145288000Y-103632000D02*
X144351399Y-102695399D01*
X144351399Y-102695399D02*
X144351399Y-99393399D01*
X144351399Y-99393399D02*
X144272000Y-99314000D01*
X149098000Y-103632000D02*
X145288000Y-103632000D01*
X149860000Y-104394000D02*
X149098000Y-103632000D01*
X149860000Y-106426000D02*
X149860000Y-104394000D01*
X144526000Y-96774000D02*
X145804000Y-96774000D01*
X145804000Y-96774000D02*
X145815000Y-96785000D01*
X144780000Y-100076000D02*
X145774000Y-100076000D01*
X145774000Y-100076000D02*
X145815000Y-100035000D01*
X144780000Y-100838000D02*
X145662000Y-100838000D01*
X145662000Y-100838000D02*
X145815000Y-100685000D01*
X144780000Y-101600000D02*
X145550000Y-101600000D01*
X145550000Y-101600000D02*
X145815000Y-101335000D01*
X157937190Y-106375190D02*
X152955601Y-101393601D01*
X152470330Y-99385000D02*
X152042400Y-99385000D01*
X152042400Y-99385000D02*
X151365000Y-99385000D01*
X152955601Y-101393601D02*
X152955601Y-99870271D01*
X152955601Y-99870271D02*
X152470330Y-99385000D01*
X158292810Y-106375190D02*
X157937190Y-106375190D01*
X159766000Y-105410000D02*
X159258000Y-105410000D01*
X159258000Y-105410000D02*
X158292810Y-106375190D01*
X160020000Y-104140000D02*
X160020000Y-105156000D01*
X160020000Y-105156000D02*
X159766000Y-105410000D01*
X152400000Y-101321334D02*
X152400000Y-101042600D01*
X152400000Y-101042600D02*
X152042400Y-100685000D01*
X152042400Y-100685000D02*
X151365000Y-100685000D01*
X157758666Y-106680000D02*
X152400000Y-101321334D01*
X160020000Y-106680000D02*
X157758666Y-106680000D01*
X160020000Y-109220000D02*
X160020000Y-108204000D01*
X160020000Y-108204000D02*
X159766000Y-107950000D01*
X159766000Y-107950000D02*
X159258000Y-107950000D01*
X159258000Y-107950000D02*
X158292810Y-106984810D01*
X158292810Y-106984810D02*
X157530809Y-106984809D01*
X157530809Y-106984809D02*
X151892000Y-101346000D01*
X151892000Y-101346000D02*
X151376000Y-101346000D01*
X151376000Y-101346000D02*
X151365000Y-101335000D01*
X151130000Y-96012000D02*
X151130000Y-96550000D01*
X151130000Y-96550000D02*
X151365000Y-96785000D01*
X150460002Y-97409000D02*
X151339000Y-97409000D01*
X151339000Y-97409000D02*
X151365000Y-97435000D01*
X148878658Y-104584500D02*
X149161500Y-104584500D01*
X147891500Y-104584500D02*
X148878658Y-104584500D01*
X146050000Y-106426000D02*
X147891500Y-104584500D01*
X153470001Y-99177501D02*
X153670000Y-99377500D01*
X152377500Y-98085000D02*
X153470001Y-99177501D01*
X151365000Y-98085000D02*
X152377500Y-98085000D01*
X150485501Y-104765501D02*
X150685500Y-104965500D01*
X150422001Y-104702001D02*
X150485501Y-104765501D01*
X150422001Y-99000599D02*
X150422001Y-104702001D01*
X150687600Y-98735000D02*
X150422001Y-99000599D01*
X151365000Y-98735000D02*
X150687600Y-98735000D01*
X149132658Y-105156000D02*
X149415500Y-105156000D01*
X147320000Y-106426000D02*
X148590000Y-105156000D01*
X148590000Y-105156000D02*
X149132658Y-105156000D01*
X151365000Y-100035000D02*
X152359000Y-100035000D01*
X152359000Y-100035000D02*
X152400000Y-100076000D01*
D24*
G36*
X162133000Y-111333000D02*
X157656869Y-111333000D01*
X156511935Y-110188065D01*
X156373406Y-110095503D01*
X156210000Y-110062999D01*
X156209995Y-110063000D01*
X136066869Y-110063000D01*
X133777000Y-107773130D01*
X133777000Y-104546400D01*
X134540594Y-104546400D01*
X134540594Y-106273600D01*
X134565973Y-106401189D01*
X134638246Y-106509354D01*
X134746411Y-106581627D01*
X134874000Y-106607006D01*
X136906000Y-106607006D01*
X137033589Y-106581627D01*
X137141754Y-106509354D01*
X137214027Y-106401189D01*
X137239406Y-106273600D01*
X137239406Y-105987000D01*
X139084056Y-105987000D01*
X141112668Y-108015612D01*
X141259307Y-108113594D01*
X141432280Y-108148000D01*
X145191594Y-108148000D01*
X145191594Y-108221000D01*
X145216973Y-108348589D01*
X145289246Y-108456754D01*
X145397411Y-108529027D01*
X145525000Y-108554406D01*
X146509298Y-108554406D01*
X146575250Y-108620358D01*
X146657640Y-108537968D01*
X146696146Y-108530309D01*
X146731575Y-108721962D01*
X147168985Y-108869046D01*
X147629386Y-108837543D01*
X147908425Y-108721962D01*
X147945794Y-108519814D01*
X147955000Y-108510608D01*
X147964206Y-108519814D01*
X148001575Y-108721962D01*
X148438985Y-108869046D01*
X148899386Y-108837543D01*
X149178425Y-108721962D01*
X149218667Y-108504273D01*
X148590000Y-107875605D01*
X148575858Y-107889748D01*
X148490102Y-107803992D01*
X148476270Y-107601840D01*
X148575858Y-107502253D01*
X148590000Y-107516395D01*
X148604142Y-107502252D01*
X148783748Y-107681858D01*
X148769605Y-107696000D01*
X149056801Y-107983195D01*
X149137288Y-108177989D01*
X149376750Y-108417870D01*
X149689783Y-108547852D01*
X150028730Y-108548148D01*
X150134915Y-108504273D01*
X150501333Y-108504273D01*
X150541575Y-108721962D01*
X150978985Y-108869046D01*
X151439386Y-108837543D01*
X151718425Y-108721962D01*
X151758667Y-108504273D01*
X151130000Y-107875605D01*
X150501333Y-108504273D01*
X150134915Y-108504273D01*
X150341989Y-108418712D01*
X150581870Y-108179250D01*
X150663335Y-107983060D01*
X150950395Y-107696000D01*
X151309605Y-107696000D01*
X151938273Y-108324667D01*
X152155962Y-108284425D01*
X152303046Y-107847015D01*
X152271543Y-107386614D01*
X152155962Y-107107575D01*
X151938273Y-107067333D01*
X151309605Y-107696000D01*
X150950395Y-107696000D01*
X150936252Y-107681858D01*
X151115858Y-107502253D01*
X151130000Y-107516395D01*
X151417195Y-107229199D01*
X151611989Y-107148712D01*
X151851870Y-106909250D01*
X151981852Y-106596217D01*
X151982148Y-106257270D01*
X151852712Y-105944011D01*
X151613250Y-105704130D01*
X151300217Y-105574148D01*
X150961270Y-105573852D01*
X150648011Y-105703288D01*
X150494943Y-105856089D01*
X150343250Y-105704130D01*
X150263200Y-105670891D01*
X150263200Y-105288405D01*
X150386588Y-105412009D01*
X150580213Y-105492409D01*
X150789867Y-105492592D01*
X150983632Y-105412530D01*
X151132009Y-105264412D01*
X151212409Y-105070787D01*
X151212592Y-104861133D01*
X151132530Y-104667368D01*
X150984412Y-104518991D01*
X150825201Y-104452881D01*
X150825201Y-101890462D01*
X150840000Y-101893406D01*
X151869196Y-101893406D01*
X157245703Y-107269914D01*
X157376511Y-107357317D01*
X157530808Y-107388009D01*
X158125800Y-107388010D01*
X158972895Y-108235106D01*
X159093169Y-108315470D01*
X158999408Y-108378119D01*
X158741318Y-108764377D01*
X158650689Y-109220000D01*
X158741318Y-109675623D01*
X158999408Y-110061881D01*
X159385666Y-110319971D01*
X159841289Y-110410600D01*
X160198711Y-110410600D01*
X160654334Y-110319971D01*
X161040592Y-110061881D01*
X161298682Y-109675623D01*
X161389311Y-109220000D01*
X161298682Y-108764377D01*
X161040592Y-108378119D01*
X160654334Y-108120029D01*
X160396287Y-108068700D01*
X160392508Y-108049702D01*
X160325889Y-107950000D01*
X160305105Y-107918894D01*
X160247171Y-107860961D01*
X160654334Y-107779971D01*
X161040592Y-107521881D01*
X161298682Y-107135623D01*
X161389311Y-106680000D01*
X161298682Y-106224377D01*
X161040592Y-105838119D01*
X160654334Y-105580029D01*
X160247171Y-105499039D01*
X160305105Y-105441106D01*
X160392508Y-105310298D01*
X160396287Y-105291300D01*
X160654334Y-105239971D01*
X161040592Y-104981881D01*
X161298682Y-104595623D01*
X161389311Y-104140000D01*
X161298682Y-103684377D01*
X161040592Y-103298119D01*
X160654334Y-103040029D01*
X160198711Y-102949400D01*
X159841289Y-102949400D01*
X159385666Y-103040029D01*
X158999408Y-103298119D01*
X158741318Y-103684377D01*
X158650689Y-104140000D01*
X158741318Y-104595623D01*
X158999408Y-104981881D01*
X159093169Y-105044530D01*
X158972895Y-105124894D01*
X158125800Y-105971990D01*
X158104201Y-105971990D01*
X153732211Y-101600000D01*
X158650689Y-101600000D01*
X158741318Y-102055623D01*
X158999408Y-102441881D01*
X159385666Y-102699971D01*
X159841289Y-102790600D01*
X160198711Y-102790600D01*
X160654334Y-102699971D01*
X161040592Y-102441881D01*
X161298682Y-102055623D01*
X161389311Y-101600000D01*
X161298682Y-101144377D01*
X161040592Y-100758119D01*
X160654334Y-100500029D01*
X160198711Y-100409400D01*
X159841289Y-100409400D01*
X159385666Y-100500029D01*
X158999408Y-100758119D01*
X158741318Y-101144377D01*
X158650689Y-101600000D01*
X153732211Y-101600000D01*
X153358801Y-101226591D01*
X153358801Y-99870271D01*
X153344251Y-99797125D01*
X153371088Y-99824009D01*
X153564713Y-99904409D01*
X153774367Y-99904592D01*
X153968132Y-99824530D01*
X154116509Y-99676412D01*
X154196909Y-99482787D01*
X154197092Y-99273133D01*
X154117030Y-99079368D01*
X154097696Y-99060000D01*
X158650689Y-99060000D01*
X158741318Y-99515623D01*
X158999408Y-99901881D01*
X159385666Y-100159971D01*
X159841289Y-100250600D01*
X160198711Y-100250600D01*
X160654334Y-100159971D01*
X161040592Y-99901881D01*
X161298682Y-99515623D01*
X161389311Y-99060000D01*
X161298682Y-98604377D01*
X161040592Y-98218119D01*
X160654334Y-97960029D01*
X160198711Y-97869400D01*
X159841289Y-97869400D01*
X159385666Y-97960029D01*
X158999408Y-98218119D01*
X158741318Y-98604377D01*
X158650689Y-99060000D01*
X154097696Y-99060000D01*
X153968912Y-98930991D01*
X153775287Y-98850591D01*
X153713248Y-98850537D01*
X152662605Y-97799895D01*
X152531798Y-97712492D01*
X152522286Y-97710600D01*
X152377500Y-97681800D01*
X152219070Y-97681800D01*
X152223406Y-97660000D01*
X152223406Y-97210000D01*
X152203515Y-97110000D01*
X152223406Y-97010000D01*
X152223406Y-96560000D01*
X152215450Y-96520000D01*
X158650689Y-96520000D01*
X158741318Y-96975623D01*
X158999408Y-97361881D01*
X159385666Y-97619971D01*
X159841289Y-97710600D01*
X160198711Y-97710600D01*
X160654334Y-97619971D01*
X161040592Y-97361881D01*
X161298682Y-96975623D01*
X161389311Y-96520000D01*
X161298682Y-96064377D01*
X161040592Y-95678119D01*
X160654334Y-95420029D01*
X160198711Y-95329400D01*
X159841289Y-95329400D01*
X159385666Y-95420029D01*
X158999408Y-95678119D01*
X158741318Y-96064377D01*
X158650689Y-96520000D01*
X152215450Y-96520000D01*
X152198027Y-96432411D01*
X152125754Y-96324246D01*
X152017589Y-96251973D01*
X151890000Y-96226594D01*
X151611521Y-96226594D01*
X151656909Y-96117287D01*
X151657092Y-95907633D01*
X151577030Y-95713868D01*
X151428912Y-95565491D01*
X151235287Y-95485091D01*
X151025633Y-95484908D01*
X150831868Y-95564970D01*
X150683491Y-95713088D01*
X150603091Y-95906713D01*
X150602908Y-96116367D01*
X150670508Y-96279972D01*
X150604246Y-96324246D01*
X150531973Y-96432411D01*
X150506594Y-96560000D01*
X150506594Y-96882040D01*
X150355635Y-96881908D01*
X150170223Y-96958519D01*
X150060000Y-96936594D01*
X147120000Y-96936594D01*
X146992411Y-96961973D01*
X146884246Y-97034246D01*
X146811973Y-97142411D01*
X146786594Y-97270000D01*
X146786594Y-98708569D01*
X146699698Y-98621673D01*
X146673406Y-98610782D01*
X146673406Y-98510000D01*
X146653515Y-98410000D01*
X146673406Y-98310000D01*
X146673406Y-97860000D01*
X146653515Y-97760000D01*
X146673406Y-97660000D01*
X146673406Y-97210000D01*
X146653515Y-97110000D01*
X146673406Y-97010000D01*
X146673406Y-96560000D01*
X146648027Y-96432411D01*
X146575754Y-96324246D01*
X146467589Y-96251973D01*
X146340000Y-96226594D01*
X145290000Y-96226594D01*
X145162411Y-96251973D01*
X145054246Y-96324246D01*
X145023140Y-96370800D01*
X144868145Y-96370800D01*
X144824912Y-96327491D01*
X144631287Y-96247091D01*
X144421633Y-96246908D01*
X144266000Y-96311214D01*
X144266000Y-96113691D01*
X144169327Y-95880302D01*
X143990699Y-95701673D01*
X143757310Y-95605000D01*
X143541750Y-95605000D01*
X143383000Y-95763750D01*
X143383000Y-96713000D01*
X143403000Y-96713000D01*
X143403000Y-96967000D01*
X143383000Y-96967000D01*
X143383000Y-96987000D01*
X143129000Y-96987000D01*
X143129000Y-96967000D01*
X142404750Y-96967000D01*
X142246000Y-97125750D01*
X142246000Y-97566309D01*
X142342673Y-97799698D01*
X142521301Y-97978327D01*
X142579609Y-98002479D01*
X142572973Y-98012411D01*
X142547594Y-98140000D01*
X142547594Y-98304590D01*
X142458027Y-98322406D01*
X142311388Y-98420388D01*
X141593570Y-99138206D01*
X141593570Y-97974841D01*
X141496897Y-97741452D01*
X141318269Y-97562823D01*
X141084880Y-97466150D01*
X140493750Y-97466150D01*
X140335000Y-97624900D01*
X140335000Y-99474020D01*
X140355000Y-99474020D01*
X140355000Y-99728020D01*
X140335000Y-99728020D01*
X140335000Y-101577140D01*
X140493750Y-101735890D01*
X140682566Y-101735890D01*
X140652752Y-101765704D01*
X139457430Y-101765704D01*
X139329841Y-101791083D01*
X139221676Y-101863356D01*
X139149403Y-101971521D01*
X139124024Y-102099110D01*
X139124024Y-104616254D01*
X138907278Y-104833000D01*
X137239406Y-104833000D01*
X137239406Y-104546400D01*
X137214027Y-104418811D01*
X137141754Y-104310646D01*
X137033589Y-104238373D01*
X136906000Y-104212994D01*
X134874000Y-104212994D01*
X134746411Y-104238373D01*
X134638246Y-104310646D01*
X134565973Y-104418811D01*
X134540594Y-104546400D01*
X133777000Y-104546400D01*
X133777000Y-102870000D01*
X134520689Y-102870000D01*
X134611318Y-103325623D01*
X134869408Y-103711881D01*
X135255666Y-103969971D01*
X135711289Y-104060600D01*
X136068711Y-104060600D01*
X136524334Y-103969971D01*
X136910592Y-103711881D01*
X137168682Y-103325623D01*
X137259311Y-102870000D01*
X137168682Y-102414377D01*
X136910592Y-102028119D01*
X136524334Y-101770029D01*
X136068711Y-101679400D01*
X135711289Y-101679400D01*
X135255666Y-101770029D01*
X134869408Y-102028119D01*
X134611318Y-102414377D01*
X134520689Y-102870000D01*
X133777000Y-102870000D01*
X133777000Y-98149026D01*
X134282642Y-98149026D01*
X134285291Y-98164791D01*
X134539268Y-98692036D01*
X134975680Y-99081954D01*
X135347039Y-99211854D01*
X135255666Y-99230029D01*
X134869408Y-99488119D01*
X134611318Y-99874377D01*
X134520689Y-100330000D01*
X134611318Y-100785623D01*
X134869408Y-101171881D01*
X135255666Y-101429971D01*
X135711289Y-101520600D01*
X136068711Y-101520600D01*
X136524334Y-101429971D01*
X136910592Y-101171881D01*
X137168682Y-100785623D01*
X137259311Y-100330000D01*
X137171148Y-99886770D01*
X138822430Y-99886770D01*
X138822430Y-101227199D01*
X138919103Y-101460588D01*
X139097731Y-101639217D01*
X139331120Y-101735890D01*
X139922250Y-101735890D01*
X140081000Y-101577140D01*
X140081000Y-99728020D01*
X138981180Y-99728020D01*
X138822430Y-99886770D01*
X137171148Y-99886770D01*
X137168682Y-99874377D01*
X136910592Y-99488119D01*
X136524334Y-99230029D01*
X136432961Y-99211854D01*
X136804320Y-99081954D01*
X137240732Y-98692036D01*
X137494709Y-98164791D01*
X137497358Y-98149026D01*
X137406416Y-97974841D01*
X138822430Y-97974841D01*
X138822430Y-99315270D01*
X138981180Y-99474020D01*
X140081000Y-99474020D01*
X140081000Y-97624900D01*
X139922250Y-97466150D01*
X139331120Y-97466150D01*
X139097731Y-97562823D01*
X138919103Y-97741452D01*
X138822430Y-97974841D01*
X137406416Y-97974841D01*
X137376217Y-97917000D01*
X136017000Y-97917000D01*
X136017000Y-97937000D01*
X135763000Y-97937000D01*
X135763000Y-97917000D01*
X134403783Y-97917000D01*
X134282642Y-98149026D01*
X133777000Y-98149026D01*
X133777000Y-97430974D01*
X134282642Y-97430974D01*
X134403783Y-97663000D01*
X135763000Y-97663000D01*
X135763000Y-96449076D01*
X136017000Y-96449076D01*
X136017000Y-97663000D01*
X137376217Y-97663000D01*
X137497358Y-97430974D01*
X137494709Y-97415209D01*
X137240732Y-96887964D01*
X136804320Y-96498046D01*
X136251913Y-96304816D01*
X136017000Y-96449076D01*
X135763000Y-96449076D01*
X135528087Y-96304816D01*
X134975680Y-96498046D01*
X134539268Y-96887964D01*
X134285291Y-97415209D01*
X134282642Y-97430974D01*
X133777000Y-97430974D01*
X133777000Y-96113691D01*
X142246000Y-96113691D01*
X142246000Y-96554250D01*
X142404750Y-96713000D01*
X143129000Y-96713000D01*
X143129000Y-95763750D01*
X142970250Y-95605000D01*
X142754690Y-95605000D01*
X142521301Y-95701673D01*
X142342673Y-95880302D01*
X142246000Y-96113691D01*
X133777000Y-96113691D01*
X133777000Y-95426870D01*
X136066869Y-93137000D01*
X156209995Y-93137000D01*
X156210000Y-93137001D01*
X156313566Y-93116400D01*
X158670594Y-93116400D01*
X158670594Y-94843600D01*
X158695973Y-94971189D01*
X158768246Y-95079354D01*
X158876411Y-95151627D01*
X159004000Y-95177006D01*
X161036000Y-95177006D01*
X161163589Y-95151627D01*
X161271754Y-95079354D01*
X161344027Y-94971189D01*
X161369406Y-94843600D01*
X161369406Y-93116400D01*
X161344027Y-92988811D01*
X161271754Y-92880646D01*
X161163589Y-92808373D01*
X161036000Y-92782994D01*
X159004000Y-92782994D01*
X158876411Y-92808373D01*
X158768246Y-92880646D01*
X158695973Y-92988811D01*
X158670594Y-93116400D01*
X156313566Y-93116400D01*
X156373406Y-93104497D01*
X156511935Y-93011935D01*
X157656869Y-91867000D01*
X162133000Y-91867000D01*
X162133000Y-111333000D01*
X162133000Y-111333000D01*
G37*
X162133000Y-111333000D02*
X157656869Y-111333000D01*
X156511935Y-110188065D01*
X156373406Y-110095503D01*
X156210000Y-110062999D01*
X156209995Y-110063000D01*
X136066869Y-110063000D01*
X133777000Y-107773130D01*
X133777000Y-104546400D01*
X134540594Y-104546400D01*
X134540594Y-106273600D01*
X134565973Y-106401189D01*
X134638246Y-106509354D01*
X134746411Y-106581627D01*
X134874000Y-106607006D01*
X136906000Y-106607006D01*
X137033589Y-106581627D01*
X137141754Y-106509354D01*
X137214027Y-106401189D01*
X137239406Y-106273600D01*
X137239406Y-105987000D01*
X139084056Y-105987000D01*
X141112668Y-108015612D01*
X141259307Y-108113594D01*
X141432280Y-108148000D01*
X145191594Y-108148000D01*
X145191594Y-108221000D01*
X145216973Y-108348589D01*
X145289246Y-108456754D01*
X145397411Y-108529027D01*
X145525000Y-108554406D01*
X146509298Y-108554406D01*
X146575250Y-108620358D01*
X146657640Y-108537968D01*
X146696146Y-108530309D01*
X146731575Y-108721962D01*
X147168985Y-108869046D01*
X147629386Y-108837543D01*
X147908425Y-108721962D01*
X147945794Y-108519814D01*
X147955000Y-108510608D01*
X147964206Y-108519814D01*
X148001575Y-108721962D01*
X148438985Y-108869046D01*
X148899386Y-108837543D01*
X149178425Y-108721962D01*
X149218667Y-108504273D01*
X148590000Y-107875605D01*
X148575858Y-107889748D01*
X148490102Y-107803992D01*
X148476270Y-107601840D01*
X148575858Y-107502253D01*
X148590000Y-107516395D01*
X148604142Y-107502252D01*
X148783748Y-107681858D01*
X148769605Y-107696000D01*
X149056801Y-107983195D01*
X149137288Y-108177989D01*
X149376750Y-108417870D01*
X149689783Y-108547852D01*
X150028730Y-108548148D01*
X150134915Y-108504273D01*
X150501333Y-108504273D01*
X150541575Y-108721962D01*
X150978985Y-108869046D01*
X151439386Y-108837543D01*
X151718425Y-108721962D01*
X151758667Y-108504273D01*
X151130000Y-107875605D01*
X150501333Y-108504273D01*
X150134915Y-108504273D01*
X150341989Y-108418712D01*
X150581870Y-108179250D01*
X150663335Y-107983060D01*
X150950395Y-107696000D01*
X151309605Y-107696000D01*
X151938273Y-108324667D01*
X152155962Y-108284425D01*
X152303046Y-107847015D01*
X152271543Y-107386614D01*
X152155962Y-107107575D01*
X151938273Y-107067333D01*
X151309605Y-107696000D01*
X150950395Y-107696000D01*
X150936252Y-107681858D01*
X151115858Y-107502253D01*
X151130000Y-107516395D01*
X151417195Y-107229199D01*
X151611989Y-107148712D01*
X151851870Y-106909250D01*
X151981852Y-106596217D01*
X151982148Y-106257270D01*
X151852712Y-105944011D01*
X151613250Y-105704130D01*
X151300217Y-105574148D01*
X150961270Y-105573852D01*
X150648011Y-105703288D01*
X150494943Y-105856089D01*
X150343250Y-105704130D01*
X150263200Y-105670891D01*
X150263200Y-105288405D01*
X150386588Y-105412009D01*
X150580213Y-105492409D01*
X150789867Y-105492592D01*
X150983632Y-105412530D01*
X151132009Y-105264412D01*
X151212409Y-105070787D01*
X151212592Y-104861133D01*
X151132530Y-104667368D01*
X150984412Y-104518991D01*
X150825201Y-104452881D01*
X150825201Y-101890462D01*
X150840000Y-101893406D01*
X151869196Y-101893406D01*
X157245703Y-107269914D01*
X157376511Y-107357317D01*
X157530808Y-107388009D01*
X158125800Y-107388010D01*
X158972895Y-108235106D01*
X159093169Y-108315470D01*
X158999408Y-108378119D01*
X158741318Y-108764377D01*
X158650689Y-109220000D01*
X158741318Y-109675623D01*
X158999408Y-110061881D01*
X159385666Y-110319971D01*
X159841289Y-110410600D01*
X160198711Y-110410600D01*
X160654334Y-110319971D01*
X161040592Y-110061881D01*
X161298682Y-109675623D01*
X161389311Y-109220000D01*
X161298682Y-108764377D01*
X161040592Y-108378119D01*
X160654334Y-108120029D01*
X160396287Y-108068700D01*
X160392508Y-108049702D01*
X160325889Y-107950000D01*
X160305105Y-107918894D01*
X160247171Y-107860961D01*
X160654334Y-107779971D01*
X161040592Y-107521881D01*
X161298682Y-107135623D01*
X161389311Y-106680000D01*
X161298682Y-106224377D01*
X161040592Y-105838119D01*
X160654334Y-105580029D01*
X160247171Y-105499039D01*
X160305105Y-105441106D01*
X160392508Y-105310298D01*
X160396287Y-105291300D01*
X160654334Y-105239971D01*
X161040592Y-104981881D01*
X161298682Y-104595623D01*
X161389311Y-104140000D01*
X161298682Y-103684377D01*
X161040592Y-103298119D01*
X160654334Y-103040029D01*
X160198711Y-102949400D01*
X159841289Y-102949400D01*
X159385666Y-103040029D01*
X158999408Y-103298119D01*
X158741318Y-103684377D01*
X158650689Y-104140000D01*
X158741318Y-104595623D01*
X158999408Y-104981881D01*
X159093169Y-105044530D01*
X158972895Y-105124894D01*
X158125800Y-105971990D01*
X158104201Y-105971990D01*
X153732211Y-101600000D01*
X158650689Y-101600000D01*
X158741318Y-102055623D01*
X158999408Y-102441881D01*
X159385666Y-102699971D01*
X159841289Y-102790600D01*
X160198711Y-102790600D01*
X160654334Y-102699971D01*
X161040592Y-102441881D01*
X161298682Y-102055623D01*
X161389311Y-101600000D01*
X161298682Y-101144377D01*
X161040592Y-100758119D01*
X160654334Y-100500029D01*
X160198711Y-100409400D01*
X159841289Y-100409400D01*
X159385666Y-100500029D01*
X158999408Y-100758119D01*
X158741318Y-101144377D01*
X158650689Y-101600000D01*
X153732211Y-101600000D01*
X153358801Y-101226591D01*
X153358801Y-99870271D01*
X153344251Y-99797125D01*
X153371088Y-99824009D01*
X153564713Y-99904409D01*
X153774367Y-99904592D01*
X153968132Y-99824530D01*
X154116509Y-99676412D01*
X154196909Y-99482787D01*
X154197092Y-99273133D01*
X154117030Y-99079368D01*
X154097696Y-99060000D01*
X158650689Y-99060000D01*
X158741318Y-99515623D01*
X158999408Y-99901881D01*
X159385666Y-100159971D01*
X159841289Y-100250600D01*
X160198711Y-100250600D01*
X160654334Y-100159971D01*
X161040592Y-99901881D01*
X161298682Y-99515623D01*
X161389311Y-99060000D01*
X161298682Y-98604377D01*
X161040592Y-98218119D01*
X160654334Y-97960029D01*
X160198711Y-97869400D01*
X159841289Y-97869400D01*
X159385666Y-97960029D01*
X158999408Y-98218119D01*
X158741318Y-98604377D01*
X158650689Y-99060000D01*
X154097696Y-99060000D01*
X153968912Y-98930991D01*
X153775287Y-98850591D01*
X153713248Y-98850537D01*
X152662605Y-97799895D01*
X152531798Y-97712492D01*
X152522286Y-97710600D01*
X152377500Y-97681800D01*
X152219070Y-97681800D01*
X152223406Y-97660000D01*
X152223406Y-97210000D01*
X152203515Y-97110000D01*
X152223406Y-97010000D01*
X152223406Y-96560000D01*
X152215450Y-96520000D01*
X158650689Y-96520000D01*
X158741318Y-96975623D01*
X158999408Y-97361881D01*
X159385666Y-97619971D01*
X159841289Y-97710600D01*
X160198711Y-97710600D01*
X160654334Y-97619971D01*
X161040592Y-97361881D01*
X161298682Y-96975623D01*
X161389311Y-96520000D01*
X161298682Y-96064377D01*
X161040592Y-95678119D01*
X160654334Y-95420029D01*
X160198711Y-95329400D01*
X159841289Y-95329400D01*
X159385666Y-95420029D01*
X158999408Y-95678119D01*
X158741318Y-96064377D01*
X158650689Y-96520000D01*
X152215450Y-96520000D01*
X152198027Y-96432411D01*
X152125754Y-96324246D01*
X152017589Y-96251973D01*
X151890000Y-96226594D01*
X151611521Y-96226594D01*
X151656909Y-96117287D01*
X151657092Y-95907633D01*
X151577030Y-95713868D01*
X151428912Y-95565491D01*
X151235287Y-95485091D01*
X151025633Y-95484908D01*
X150831868Y-95564970D01*
X150683491Y-95713088D01*
X150603091Y-95906713D01*
X150602908Y-96116367D01*
X150670508Y-96279972D01*
X150604246Y-96324246D01*
X150531973Y-96432411D01*
X150506594Y-96560000D01*
X150506594Y-96882040D01*
X150355635Y-96881908D01*
X150170223Y-96958519D01*
X150060000Y-96936594D01*
X147120000Y-96936594D01*
X146992411Y-96961973D01*
X146884246Y-97034246D01*
X146811973Y-97142411D01*
X146786594Y-97270000D01*
X146786594Y-98708569D01*
X146699698Y-98621673D01*
X146673406Y-98610782D01*
X146673406Y-98510000D01*
X146653515Y-98410000D01*
X146673406Y-98310000D01*
X146673406Y-97860000D01*
X146653515Y-97760000D01*
X146673406Y-97660000D01*
X146673406Y-97210000D01*
X146653515Y-97110000D01*
X146673406Y-97010000D01*
X146673406Y-96560000D01*
X146648027Y-96432411D01*
X146575754Y-96324246D01*
X146467589Y-96251973D01*
X146340000Y-96226594D01*
X145290000Y-96226594D01*
X145162411Y-96251973D01*
X145054246Y-96324246D01*
X145023140Y-96370800D01*
X144868145Y-96370800D01*
X144824912Y-96327491D01*
X144631287Y-96247091D01*
X144421633Y-96246908D01*
X144266000Y-96311214D01*
X144266000Y-96113691D01*
X144169327Y-95880302D01*
X143990699Y-95701673D01*
X143757310Y-95605000D01*
X143541750Y-95605000D01*
X143383000Y-95763750D01*
X143383000Y-96713000D01*
X143403000Y-96713000D01*
X143403000Y-96967000D01*
X143383000Y-96967000D01*
X143383000Y-96987000D01*
X143129000Y-96987000D01*
X143129000Y-96967000D01*
X142404750Y-96967000D01*
X142246000Y-97125750D01*
X142246000Y-97566309D01*
X142342673Y-97799698D01*
X142521301Y-97978327D01*
X142579609Y-98002479D01*
X142572973Y-98012411D01*
X142547594Y-98140000D01*
X142547594Y-98304590D01*
X142458027Y-98322406D01*
X142311388Y-98420388D01*
X141593570Y-99138206D01*
X141593570Y-97974841D01*
X141496897Y-97741452D01*
X141318269Y-97562823D01*
X141084880Y-97466150D01*
X140493750Y-97466150D01*
X140335000Y-97624900D01*
X140335000Y-99474020D01*
X140355000Y-99474020D01*
X140355000Y-99728020D01*
X140335000Y-99728020D01*
X140335000Y-101577140D01*
X140493750Y-101735890D01*
X140682566Y-101735890D01*
X140652752Y-101765704D01*
X139457430Y-101765704D01*
X139329841Y-101791083D01*
X139221676Y-101863356D01*
X139149403Y-101971521D01*
X139124024Y-102099110D01*
X139124024Y-104616254D01*
X138907278Y-104833000D01*
X137239406Y-104833000D01*
X137239406Y-104546400D01*
X137214027Y-104418811D01*
X137141754Y-104310646D01*
X137033589Y-104238373D01*
X136906000Y-104212994D01*
X134874000Y-104212994D01*
X134746411Y-104238373D01*
X134638246Y-104310646D01*
X134565973Y-104418811D01*
X134540594Y-104546400D01*
X133777000Y-104546400D01*
X133777000Y-102870000D01*
X134520689Y-102870000D01*
X134611318Y-103325623D01*
X134869408Y-103711881D01*
X135255666Y-103969971D01*
X135711289Y-104060600D01*
X136068711Y-104060600D01*
X136524334Y-103969971D01*
X136910592Y-103711881D01*
X137168682Y-103325623D01*
X137259311Y-102870000D01*
X137168682Y-102414377D01*
X136910592Y-102028119D01*
X136524334Y-101770029D01*
X136068711Y-101679400D01*
X135711289Y-101679400D01*
X135255666Y-101770029D01*
X134869408Y-102028119D01*
X134611318Y-102414377D01*
X134520689Y-102870000D01*
X133777000Y-102870000D01*
X133777000Y-98149026D01*
X134282642Y-98149026D01*
X134285291Y-98164791D01*
X134539268Y-98692036D01*
X134975680Y-99081954D01*
X135347039Y-99211854D01*
X135255666Y-99230029D01*
X134869408Y-99488119D01*
X134611318Y-99874377D01*
X134520689Y-100330000D01*
X134611318Y-100785623D01*
X134869408Y-101171881D01*
X135255666Y-101429971D01*
X135711289Y-101520600D01*
X136068711Y-101520600D01*
X136524334Y-101429971D01*
X136910592Y-101171881D01*
X137168682Y-100785623D01*
X137259311Y-100330000D01*
X137171148Y-99886770D01*
X138822430Y-99886770D01*
X138822430Y-101227199D01*
X138919103Y-101460588D01*
X139097731Y-101639217D01*
X139331120Y-101735890D01*
X139922250Y-101735890D01*
X140081000Y-101577140D01*
X140081000Y-99728020D01*
X138981180Y-99728020D01*
X138822430Y-99886770D01*
X137171148Y-99886770D01*
X137168682Y-99874377D01*
X136910592Y-99488119D01*
X136524334Y-99230029D01*
X136432961Y-99211854D01*
X136804320Y-99081954D01*
X137240732Y-98692036D01*
X137494709Y-98164791D01*
X137497358Y-98149026D01*
X137406416Y-97974841D01*
X138822430Y-97974841D01*
X138822430Y-99315270D01*
X138981180Y-99474020D01*
X140081000Y-99474020D01*
X140081000Y-97624900D01*
X139922250Y-97466150D01*
X139331120Y-97466150D01*
X139097731Y-97562823D01*
X138919103Y-97741452D01*
X138822430Y-97974841D01*
X137406416Y-97974841D01*
X137376217Y-97917000D01*
X136017000Y-97917000D01*
X136017000Y-97937000D01*
X135763000Y-97937000D01*
X135763000Y-97917000D01*
X134403783Y-97917000D01*
X134282642Y-98149026D01*
X133777000Y-98149026D01*
X133777000Y-97430974D01*
X134282642Y-97430974D01*
X134403783Y-97663000D01*
X135763000Y-97663000D01*
X135763000Y-96449076D01*
X136017000Y-96449076D01*
X136017000Y-97663000D01*
X137376217Y-97663000D01*
X137497358Y-97430974D01*
X137494709Y-97415209D01*
X137240732Y-96887964D01*
X136804320Y-96498046D01*
X136251913Y-96304816D01*
X136017000Y-96449076D01*
X135763000Y-96449076D01*
X135528087Y-96304816D01*
X134975680Y-96498046D01*
X134539268Y-96887964D01*
X134285291Y-97415209D01*
X134282642Y-97430974D01*
X133777000Y-97430974D01*
X133777000Y-96113691D01*
X142246000Y-96113691D01*
X142246000Y-96554250D01*
X142404750Y-96713000D01*
X143129000Y-96713000D01*
X143129000Y-95763750D01*
X142970250Y-95605000D01*
X142754690Y-95605000D01*
X142521301Y-95701673D01*
X142342673Y-95880302D01*
X142246000Y-96113691D01*
X133777000Y-96113691D01*
X133777000Y-95426870D01*
X136066869Y-93137000D01*
X156209995Y-93137000D01*
X156210000Y-93137001D01*
X156313566Y-93116400D01*
X158670594Y-93116400D01*
X158670594Y-94843600D01*
X158695973Y-94971189D01*
X158768246Y-95079354D01*
X158876411Y-95151627D01*
X159004000Y-95177006D01*
X161036000Y-95177006D01*
X161163589Y-95151627D01*
X161271754Y-95079354D01*
X161344027Y-94971189D01*
X161369406Y-94843600D01*
X161369406Y-93116400D01*
X161344027Y-92988811D01*
X161271754Y-92880646D01*
X161163589Y-92808373D01*
X161036000Y-92782994D01*
X159004000Y-92782994D01*
X158876411Y-92808373D01*
X158768246Y-92880646D01*
X158695973Y-92988811D01*
X158670594Y-93116400D01*
X156313566Y-93116400D01*
X156373406Y-93104497D01*
X156511935Y-93011935D01*
X157656869Y-91867000D01*
X162133000Y-91867000D01*
X162133000Y-111333000D01*
G36*
X147419898Y-107588008D02*
X147433730Y-107790160D01*
X147334143Y-107889748D01*
X147320000Y-107875605D01*
X147305858Y-107889748D01*
X147126253Y-107710143D01*
X147140395Y-107696000D01*
X147126253Y-107681858D01*
X147305858Y-107502253D01*
X147320000Y-107516395D01*
X147334143Y-107502253D01*
X147419898Y-107588008D01*
X147419898Y-107588008D01*
G37*
X147419898Y-107588008D02*
X147433730Y-107790160D01*
X147334143Y-107889748D01*
X147320000Y-107875605D01*
X147305858Y-107889748D01*
X147126253Y-107710143D01*
X147140395Y-107696000D01*
X147126253Y-107681858D01*
X147305858Y-107502253D01*
X147320000Y-107516395D01*
X147334143Y-107502253D01*
X147419898Y-107588008D01*
G36*
X142572973Y-99467589D02*
X142645246Y-99575754D01*
X142753411Y-99648027D01*
X142881000Y-99673406D01*
X143631000Y-99673406D01*
X143758589Y-99648027D01*
X143822231Y-99605503D01*
X143824970Y-99612132D01*
X143948199Y-99735576D01*
X143948199Y-102695399D01*
X143967136Y-102790600D01*
X143978891Y-102849697D01*
X144066294Y-102980504D01*
X145002895Y-103917106D01*
X145133702Y-104004508D01*
X145288000Y-104035200D01*
X148930990Y-104035200D01*
X148983587Y-104087797D01*
X148863368Y-104137470D01*
X148819461Y-104181300D01*
X147891500Y-104181300D01*
X147737202Y-104211992D01*
X147606394Y-104299395D01*
X146298949Y-105606840D01*
X146220217Y-105574148D01*
X145881270Y-105573852D01*
X145568011Y-105703288D01*
X145328130Y-105942750D01*
X145198148Y-106255783D01*
X145197852Y-106594730D01*
X145327288Y-106907989D01*
X145328389Y-106909092D01*
X145289246Y-106935246D01*
X145216973Y-107043411D01*
X145191594Y-107171000D01*
X145191594Y-107244000D01*
X141619504Y-107244000D01*
X139873893Y-105498389D01*
X139940026Y-105432256D01*
X140958570Y-105432256D01*
X141086159Y-105406877D01*
X141194324Y-105334604D01*
X141266597Y-105226439D01*
X141291976Y-105098850D01*
X141291976Y-102404928D01*
X141797612Y-101899292D01*
X141895594Y-101752653D01*
X141902386Y-101718508D01*
X141930000Y-101579680D01*
X141930000Y-100080224D01*
X142567940Y-99442284D01*
X142572973Y-99467589D01*
X142572973Y-99467589D01*
G37*
X142572973Y-99467589D02*
X142645246Y-99575754D01*
X142753411Y-99648027D01*
X142881000Y-99673406D01*
X143631000Y-99673406D01*
X143758589Y-99648027D01*
X143822231Y-99605503D01*
X143824970Y-99612132D01*
X143948199Y-99735576D01*
X143948199Y-102695399D01*
X143967136Y-102790600D01*
X143978891Y-102849697D01*
X144066294Y-102980504D01*
X145002895Y-103917106D01*
X145133702Y-104004508D01*
X145288000Y-104035200D01*
X148930990Y-104035200D01*
X148983587Y-104087797D01*
X148863368Y-104137470D01*
X148819461Y-104181300D01*
X147891500Y-104181300D01*
X147737202Y-104211992D01*
X147606394Y-104299395D01*
X146298949Y-105606840D01*
X146220217Y-105574148D01*
X145881270Y-105573852D01*
X145568011Y-105703288D01*
X145328130Y-105942750D01*
X145198148Y-106255783D01*
X145197852Y-106594730D01*
X145327288Y-106907989D01*
X145328389Y-106909092D01*
X145289246Y-106935246D01*
X145216973Y-107043411D01*
X145191594Y-107171000D01*
X145191594Y-107244000D01*
X141619504Y-107244000D01*
X139873893Y-105498389D01*
X139940026Y-105432256D01*
X140958570Y-105432256D01*
X141086159Y-105406877D01*
X141194324Y-105334604D01*
X141266597Y-105226439D01*
X141291976Y-105098850D01*
X141291976Y-102404928D01*
X141797612Y-101899292D01*
X141895594Y-101752653D01*
X141902386Y-101718508D01*
X141930000Y-101579680D01*
X141930000Y-100080224D01*
X142567940Y-99442284D01*
X142572973Y-99467589D01*
G36*
X145962000Y-99476594D02*
X145668000Y-99476594D01*
X145668000Y-99293406D01*
X145962000Y-99293406D01*
X145962000Y-99476594D01*
X145962000Y-99476594D01*
G37*
X145962000Y-99476594D02*
X145668000Y-99476594D01*
X145668000Y-99293406D01*
X145962000Y-99293406D01*
X145962000Y-99476594D01*
M02*
