M48
;DRILL file {KiCad (2016-11-25 revision 30df041)-master} date Sun Nov 27 00:56:41 2016
;FORMAT={-:-/ absolute / inch / decimal}
FMAT,2
INCH,TZ
T1C0.007
T2C0.016
T3C0.026
T4C0.040
%
G90
G05
M72
T1
X5.68Y-3.91
X5.69Y-3.81
X5.7Y-3.94
X5.7Y-3.97
X5.7Y-4.
X5.8725Y-4.1175
X5.8825Y-4.14
X5.9236Y-3.835
X5.9325Y-4.1325
X5.95Y-3.78
X6.Y-3.94
X6.05Y-3.9125
T2
X5.62Y-3.9575
T3
X5.75Y-4.19
X5.75Y-4.24
X5.8Y-4.19
X5.8Y-4.24
X5.85Y-4.19
X5.85Y-4.24
X5.9Y-4.19
X5.9Y-4.24
X5.95Y-4.19
X5.95Y-4.24
T4
X5.35Y-3.85
X5.35Y-3.95
X5.35Y-4.05
X5.35Y-4.15
X6.3Y-3.7
X6.3Y-3.8
X6.3Y-3.9
X6.3Y-4.
X6.3Y-4.1
X6.3Y-4.2
X6.3Y-4.3
T0
M30
